<svg xmlns="http://www.w3.org/2000/svg" xmlns:xlink="http://www.w3.org/1999/xlink" xmlns:lucid="lucid" width="680" height="580"><g transform="translate(-500 -140)" lucid:page-tab-id="0_0"><path d="M0 0h1760v1360H0z" fill="#fff"/><path d="M700 160h300v100H700z" stroke="#000" fill="#fff"/><use xlink:href="#a" transform="matrix(1,0,0,1,705,165) translate(104.25 18.54)"/><use xlink:href="#b" transform="matrix(1,0,0,1,705,165) translate(154.91 18.54)"/><path d="M720 200h260v40H720z" stroke="#000" stroke-opacity="0" stroke-width="2" fill="#ffeca9"/><use xlink:href="#c" transform="matrix(1,0,0,1,725,205) translate(78.44999999999999 19.54)"/><use xlink:href="#d" transform="matrix(1,0,0,1,725,205) translate(127.25 19.54)"/><use xlink:href="#e" transform="matrix(1,0,0,1,725,205) translate(141.39 19.54)"/><use xlink:href="#f" transform="matrix(1,0,0,1,725,205) translate(150.49 19.54)"/><use xlink:href="#g" transform="matrix(1,0,0,1,725,205) translate(164.63 19.54)"/><path d="M560 320h220v100H560z" stroke="#000" fill="#fff"/><use xlink:href="#a" transform="matrix(1,0,0,1,565,325) translate(74.87 18.54)"/><use xlink:href="#h" transform="matrix(1,0,0,1,565,325) translate(125.53 18.54)"/><path d="M580 360h180v40H580z" stroke="#000" stroke-opacity="0" stroke-width="2" fill="#ffeca9"/><use xlink:href="#c" transform="matrix(1,0,0,1,585,365) translate(22.230000000000004 19.54)"/><use xlink:href="#i" transform="matrix(1,0,0,1,585,365) translate(71.03 19.54)"/><use xlink:href="#e" transform="matrix(1,0,0,1,585,365) translate(101.89 19.54)"/><use xlink:href="#j" transform="matrix(1,0,0,1,585,365) translate(110.99 19.54)"/><use xlink:href="#g" transform="matrix(1,0,0,1,585,365) translate(141.85 19.54)"/><path d="M900 320h220v100H900z" stroke="#000" fill="#fff"/><use xlink:href="#a" transform="matrix(1,0,0,1,905,325) translate(74.87 18.54)"/><use xlink:href="#k" transform="matrix(1,0,0,1,905,325) translate(125.53 18.54)"/><path d="M920 360h180v40H920z" stroke="#000" stroke-opacity="0" stroke-width="2" fill="#ffeca9"/><use xlink:href="#c" transform="matrix(1,0,0,1,925,365) translate(22.230000000000004 19.54)"/><use xlink:href="#l" transform="matrix(1,0,0,1,925,365) translate(71.03 19.54)"/><use xlink:href="#e" transform="matrix(1,0,0,1,925,365) translate(101.89 19.54)"/><use xlink:href="#m" transform="matrix(1,0,0,1,925,365) translate(110.99 19.54)"/><use xlink:href="#g" transform="matrix(1,0,0,1,925,365) translate(141.85 19.54)"/><path d="M520 460h140v100H520z" stroke="#000" fill="#fff"/><use xlink:href="#a" transform="matrix(1,0,0,1,525,465) translate(27.009999999999998 18.54)"/><use xlink:href="#n" transform="matrix(1,0,0,1,525,465) translate(77.67 18.54)"/><path d="M540 500h100v40H540z" stroke="#000" stroke-opacity="0" stroke-width="2" fill="#ffeca9"/><use xlink:href="#c" transform="matrix(1,0,0,1,545,505) translate(5.189999999999998 19.54)"/><use xlink:href="#o" transform="matrix(1,0,0,1,545,505) translate(53.99 19.54)"/><use xlink:href="#g" transform="matrix(1,0,0,1,545,505) translate(78.89 19.54)"/><path d="M680 460h140v100H680z" stroke="#000" fill="#fff"/><use xlink:href="#a" transform="matrix(1,0,0,1,685,465) translate(26.509999999999998 18.54)"/><use xlink:href="#p" transform="matrix(1,0,0,1,685,465) translate(77.17 18.54)"/><path d="M700 500h100v40H700z" stroke="#000" stroke-opacity="0" stroke-width="2" fill="#ffeca9"/><use xlink:href="#c" transform="matrix(1,0,0,1,705,505) translate(4.689999999999998 19.54)"/><use xlink:href="#q" transform="matrix(1,0,0,1,705,505) translate(53.49 19.54)"/><use xlink:href="#g" transform="matrix(1,0,0,1,705,505) translate(78.39 19.54)"/><path d="M590 459.5l44.18-29" stroke="#000" stroke-width="2" fill="none"/><path d="M590.33 460h-2.9l2.02-1.34zM637.34 433.98l-5.1-7.75 14.48-3.95z"/><path d="M637.26 435.68l-6.6-10.05 18.77-5.13zm-3.42-8.85l3.58 5.45 6.6-8.23z"/><path d="M750 459.5l-40.65-28.53" stroke="#000" stroke-width="2" fill="none"/><path d="M752.45 460h-2.8l.92-1.32zM711.4 426.76l-5.32 7.6-9-12z"/><path d="M713.02 426.2l-6.9 9.85-11.7-15.55zm-6.97 6.45l3.75-5.34-10.08-3.08z"/><path d="M670 319.5l117.3-51.65" stroke="#000" stroke-width="2" fill="none"/><path d="M670.22 320h-3.28l-.1-.2 2.76-1.22zM789.85 271.8l-3.74-8.5 14.94-1.5z"/><path d="M789.5 273.46l-4.86-11L804 260.5zm-1.92-9.3l2.63 5.97 7.88-7.02z"/><path d="M1010 319.5l-110.8-51.33" stroke="#000" stroke-width="2" fill="none"/><path d="M1013.14 319.85l-.07.15h-3.3l.65-1.4zM900.5 263.65l-3.9 8.4-11-10.2z"/><path d="M901.98 262.82l-5.05 10.9-14.26-13.22zm-5.7 7.57l2.73-5.92-10.46-1.26z"/><path d="M520 600h140v100H520z" stroke="#000" fill="#fff"/><use xlink:href="#r" transform="matrix(1,0,0,1,525,605) translate(21.259999999999998 18.54)"/><use xlink:href="#s" transform="matrix(1,0,0,1,525,605) translate(64.4 18.54)"/><path d="M540 640h100v40H540z" stroke="#000" stroke-opacity="0" stroke-width="2" fill="#ffeca9"/><use xlink:href="#t" transform="matrix(1,0,0,1,545,645) translate(34.82 19.54)"/><path d="M680 600h140v100H680z" stroke="#000" fill="#fff"/><use xlink:href="#r" transform="matrix(1,0,0,1,685,605) translate(20.759999999999998 18.54)"/><use xlink:href="#s" transform="matrix(1,0,0,1,685,605) translate(63.9 18.54)"/><path d="M700 640h100v40H700z" stroke="#000" stroke-opacity="0" stroke-width="2" fill="#ffeca9"/><use xlink:href="#u" transform="matrix(1,0,0,1,705,645) translate(34.82 19.54)"/><path d="M590 599.5v-20.76" stroke="#000" stroke-width="2" fill="none"/><path d="M591 600h-2v-.5h2zM594.64 578h-9.28l4.64-14.26z"/><path d="M596 579h-12l6-18.5zm-9.26-2h6.52L590 566.97z"/><path d="M750 599.5v-20.76" stroke="#000" stroke-width="2" fill="none"/><path d="M751 600h-2v-.5h2zM754.64 578h-9.28l4.64-14.26z"/><path d="M756 579h-12l6-18.5zm-9.26-2h6.52L750 566.97z"/><path d="M860 460h140v100H860z" stroke="#000" fill="#fff"/><use xlink:href="#a" transform="matrix(1,0,0,1,865,465) translate(26.509999999999998 18.54)"/><use xlink:href="#v" transform="matrix(1,0,0,1,865,465) translate(77.17 18.54)"/><path d="M880 500h100v40H880z" stroke="#000" stroke-opacity="0" stroke-width="2" fill="#ffeca9"/><use xlink:href="#c" transform="matrix(1,0,0,1,885,505) translate(4.689999999999998 19.54)"/><use xlink:href="#w" transform="matrix(1,0,0,1,885,505) translate(53.49 19.54)"/><use xlink:href="#g" transform="matrix(1,0,0,1,885,505) translate(78.39 19.54)"/><path d="M1020 460h140v100h-140z" stroke="#000" fill="#fff"/><use xlink:href="#a" transform="matrix(1,0,0,1,1025,465) translate(26.509999999999998 18.54)"/><use xlink:href="#x" transform="matrix(1,0,0,1,1025,465) translate(77.17 18.54)"/><path d="M1040 500h100v40h-100z" stroke="#000" stroke-opacity="0" stroke-width="2" fill="#ffeca9"/><g><use xlink:href="#c" transform="matrix(1,0,0,1,1045,505) translate(4.689999999999998 19.54)"/><use xlink:href="#y" transform="matrix(1,0,0,1,1045,505) translate(53.49 19.54)"/><use xlink:href="#g" transform="matrix(1,0,0,1,1045,505) translate(78.39 19.54)"/></g><path d="M930 459.5l43.56-28.9" stroke="#000" stroke-width="2" fill="none"/><path d="M930.33 460h-2.9l2.02-1.33zM976.74 434.04l-5.13-7.72 14.46-4.03z"/><path d="M976.66 435.74L970 425.72l18.75-5.22zm-3.46-8.83l3.6 5.44 6.56-8.26z"/><path d="M1090 459.5l-42.43-28.77" stroke="#000" stroke-width="2" fill="none"/><path d="M1092.52 460h-2.86l.9-1.33zM1049.56 426.48l-5.2 7.68-9.2-11.84z"/><path d="M1051.16 425.9l-6.74 9.96-11.94-15.36zm-6.85 6.56l3.66-5.4-10.13-2.93z"/><path d="M860 600h140v100H860z" stroke="#000" fill="#fff"/><g><use xlink:href="#r" transform="matrix(1,0,0,1,865,605) translate(20.759999999999998 18.54)"/><use xlink:href="#s" transform="matrix(1,0,0,1,865,605) translate(63.9 18.54)"/></g><path d="M880 640h100v40H880z" stroke="#000" stroke-opacity="0" stroke-width="2" fill="#ffeca9"/><g><use xlink:href="#t" transform="matrix(1,0,0,1,885,645) translate(34.82 19.54)"/></g><path d="M1020 600h140v100h-140z" stroke="#000" fill="#fff"/><g><use xlink:href="#r" transform="matrix(1,0,0,1,1025,605) translate(20.759999999999998 18.54)"/><use xlink:href="#s" transform="matrix(1,0,0,1,1025,605) translate(63.9 18.54)"/></g><path d="M1040 640h100v40h-100z" stroke="#000" stroke-opacity="0" stroke-width="2" fill="#ffeca9"/><g><use xlink:href="#u" transform="matrix(1,0,0,1,1045,645) translate(34.82 19.54)"/></g><path d="M930 599.5v-20.76" stroke="#000" stroke-width="2" fill="none"/><path d="M931 600h-2v-.5h2zM934.64 578h-9.28l4.64-14.26z"/><path d="M936 579h-12l6-18.5zm-9.26-2h6.52L930 566.97z"/><path d="M1090 599.5v-20.76" stroke="#000" stroke-width="2" fill="none"/><path d="M1091 600h-2v-.5h2zM1094.64 578h-9.28l4.64-14.26z"/><path d="M1096 579h-12l6-18.5zm-9.26-2h6.52l-3.26-10.03z"/><defs><path d="M729-650v28c-82 7-90 12-90 95v404c0 84 8 89 89 95V0H460v-28c85-6 94-11 94-95v-200H213v200c0 83 8 89 90 95V0H40v-28c80-6 88-11 88-95v-404c0-84-8-88-90-95v-28h259v28c-76 7-84 12-84 95v162h341v-162c0-83-8-88-86-95v-28h261" id="z"/><path d="M225-449c82-7 127 65 127 149v186c2 67 33 69 71 49l10 26-85 51c-37-1-65-32-71-64-40 27-88 64-118 64C88 12 39-47 39-110c0-110 196-119 236-164 5-79-29-135-84-131-51 3-61 36-75 85-13 45-72 19-73-19 0-15 13-26 32-40 28-20 92-65 150-70zm50 209c-49 31-154 45-151 115 4 97 103 89 151 41v-156" id="A"/><path d="M320-325l-26 6c-19-59-54-99-103-99-38 0-65 30-65 69 0 44 40 68 85 87 75 31 126 67 126 136 0 91-85 138-165 138-51 0-97-19-115-34-7-14-16-82-16-118l26-5C85-79 130-21 190-21c37 0 71-28 71-70 0-44-29-68-79-91-60-28-125-61-125-138 0-70 60-129 152-129 41 0 68 9 89 17 8 23 19 82 22 107" id="B"/><path d="M513 0H302v-26c58-6 66-12 66-77v-166c0-82-31-123-98-123-38 0-76 19-104 51v238c0 64 5 71 64 77V0H18l1-26c60-5 68-11 68-77v-477c0-63-2-68-68-74v-23c48-7 108-23 147-35v336c35-36 89-73 143-73 81-1 138 51 138 171v175c0 66 7 72 66 77V0" id="C"/><path d="M59-355c0-33 23-56 56-56 31 0 55 23 55 56 0 34-24 58-56 58s-55-24-55-58zM171-46c0 35-24 58-57 58-31 0-55-23-55-58 0-32 24-57 56-57s56 25 56 57" id="D"/><g id="a"><use transform="matrix(0.02,0,0,0.02,0,0)" xlink:href="#z"/><use transform="matrix(0.02,0,0,0.02,14.84,0)" xlink:href="#A"/><use transform="matrix(0.02,0,0,0.02,23.619999999999997,0)" xlink:href="#B"/><use transform="matrix(0.02,0,0,0.02,30.88,0)" xlink:href="#C"/><use transform="matrix(0.02,0,0,0.02,41.56,0)" xlink:href="#D"/></g><path d="M592-498l-29 3c-11-48-21-73-32-89-17-24-33-31-108-31h-71v492c0 79 8 89 103 95V0H168v-28c91-6 99-16 99-95v-492h-62c-83 0-102 9-116 31-11 18-20 45-32 89H28c5-60 10-125 12-180h20c14 23 27 25 55 25h395c27 0 35-6 51-25h21c0 46 5 119 10 177" id="E"/><path d="M37-209c0-165 128-240 220-240 123 0 216 99 216 223C473-65 355 12 256 12 119 12 37-98 37-209zm343 5c0-117-47-213-135-212-61 0-115 62-115 175 0 126 55 220 137 220 62 0 113-46 113-183" id="F"/><path d="M169-380c44-21 85-69 141-69 111 0 177 90 177 189 0 151-119 248-249 272-29-1-56-11-69-18v131c0 76 7 81 85 88v27H17v-27c64-6 73-12 73-78v-452c0-65-4-67-66-75v-24c42-7 98-24 145-43v79zm0 33v271c22 23 60 39 94 39 84 0 140-72 140-185 0-107-61-167-134-167-32 0-73 22-100 42" id="G"/><g id="b"><use transform="matrix(0.02,0,0,0.02,0,0)" xlink:href="#E"/><use transform="matrix(0.02,0,0,0.02,10.379999999999997,0)" xlink:href="#F"/><use transform="matrix(0.02,0,0,0.02,20.36,0)" xlink:href="#G"/></g><path d="M300 147l-18 22C-2-16-3-524 282-709l18 23c-100 83-157 244-157 416s58 333 157 417" id="H"/><g id="c"><use transform="matrix(0.02,0,0,0.02,0,0)" xlink:href="#C"/><use transform="matrix(0.02,0,0,0.02,10.620000000000001,0)" xlink:href="#A"/><use transform="matrix(0.02,0,0,0.02,19.4,0)" xlink:href="#B"/><use transform="matrix(0.02,0,0,0.02,26.66,0)" xlink:href="#C"/><use transform="matrix(0.02,0,0,0.02,37.34,0)" xlink:href="#H"/></g><path d="M35-311c0-146 55-325 206-324 149 0 202 169 202 323 0 146-53 324-203 324C89 12 35-153 35-311zm319-1c0-142-25-291-116-290-90 0-114 150-114 289 0 140 29 291 116 291 90 0 114-150 114-290" id="I"/><use transform="matrix(0.02,0,0,0.02,0,0)" xlink:href="#I" id="d"/><path d="M58-63c-28-19 0-74 37-66 35 0 91 38 91 108 0 77-70 120-131 138L44 88c48-20 77-46 77-84 0-36-28-59-63-67" id="J"/><use transform="matrix(0.02,0,0,0.02,0,0)" xlink:href="#J" id="e"/><path d="M384 0H109v-27c91-7 96-15 96-87v-385c0-52-4-57-48-59l-48-2v-23c64-11 123-30 178-52v521c0 72 6 80 97 87V0" id="K"/><use transform="matrix(0.02,0,0,0.02,0,0)" xlink:href="#K" id="f"/><path d="M64-709c149 100 211 259 211 440 0 179-62 337-211 438l-19-22C147 62 203-98 203-270S145-604 45-686" id="L"/><use transform="matrix(0.02,0,0,0.02,0,0)" xlink:href="#L" id="g"/><use transform="matrix(0.02,0,0,0.02,0,0)" xlink:href="#I" id="h"/><path d="M300-253l-15 55H57l14-55h229" id="M"/><g id="i"><use transform="matrix(0.02,0,0,0.02,0,0)" xlink:href="#I"/><use transform="matrix(0.02,0,0,0.02,9.6,0)" xlink:href="#M"/><use transform="matrix(0.02,0,0,0.02,16.72,0)" xlink:href="#I"/></g><g id="j"><use transform="matrix(0.02,0,0,0.02,0,0)" xlink:href="#I"/><use transform="matrix(0.02,0,0,0.02,9.6,0)" xlink:href="#M"/><use transform="matrix(0.02,0,0,0.02,16.72,0)" xlink:href="#K"/></g><use transform="matrix(0.02,0,0,0.02,0,0)" xlink:href="#K" id="k"/><g id="l"><use transform="matrix(0.02,0,0,0.02,0,0)" xlink:href="#K"/><use transform="matrix(0.02,0,0,0.02,9.6,0)" xlink:href="#M"/><use transform="matrix(0.02,0,0,0.02,16.72,0)" xlink:href="#I"/></g><g id="m"><use transform="matrix(0.02,0,0,0.02,0,0)" xlink:href="#K"/><use transform="matrix(0.02,0,0,0.02,9.6,0)" xlink:href="#M"/><use transform="matrix(0.02,0,0,0.02,16.72,0)" xlink:href="#K"/></g><g id="n"><use transform="matrix(0.02,0,0,0.02,0,0)" xlink:href="#I"/><use transform="matrix(0.02,0,0,0.02,9.6,0)" xlink:href="#M"/><use transform="matrix(0.02,0,0,0.02,16.72,0)" xlink:href="#I"/></g><path d="M332-34c116 5 128-42 163-129l30 6c-6 31-27 126-36 157H36v-28c84-6 92-13 92-98v-400c0-85-7-90-88-96v-28h261v28c-79 6-88 11-88 96v395c-5 104 31 93 119 97" id="N"/><g id="o"><use transform="matrix(0.02,0,0,0.02,0,0)" xlink:href="#N"/><use transform="matrix(0.02,0,0,0.02,10.76,0)" xlink:href="#K"/></g><g id="p"><use transform="matrix(0.02,0,0,0.02,0,0)" xlink:href="#I"/><use transform="matrix(0.02,0,0,0.02,9.6,0)" xlink:href="#M"/><use transform="matrix(0.02,0,0,0.02,16.72,0)" xlink:href="#K"/></g><path d="M412-140l28 9c-13 42-23 86-35 131H31v-23c56-55 112-112 162-170 62-74 125-156 125-242 0-84-44-133-118-133-68 0-110 54-136 93l-22-20c43-65 86-141 192-140 88 0 168 64 168 169 0 140-191 293-274 393h187c54 0 67-4 97-67" id="O"/><g id="q"><use transform="matrix(0.02,0,0,0.02,0,0)" xlink:href="#N"/><use transform="matrix(0.02,0,0,0.02,10.76,0)" xlink:href="#O"/></g><path d="M690-350C690-113 514 3 270 0H33v-27c86-6 94-12 94-97v-401c0-86-8-90-85-96v-29h281c227-1 367 86 367 300zM304-616c-77 5-90-11-91 69v416c0 76 33 95 106 95 187 0 273-140 273-300 0-166-107-291-288-280" id="P"/><path d="M298-36c-32 14-72 48-110 48-63 0-98-40-98-119v-291H21l-4-10 27-29h46v-73l65-66 14 2v137h113c9 10 6 32-6 39H169v257c2 119 61 103 120 79" id="Q"/><g id="r"><use transform="matrix(0.02,0,0,0.02,0,0)" xlink:href="#P"/><use transform="matrix(0.02,0,0,0.02,14.82,0)" xlink:href="#A"/><use transform="matrix(0.02,0,0,0.02,23.6,0)" xlink:href="#Q"/><use transform="matrix(0.02,0,0,0.02,29.820000000000004,0)" xlink:href="#A"/></g><path d="M301-650c133-2 206 41 206 148 0 95-79 134-135 149v3c99 15 177 59 177 159C549-56 410 0 257 0H36v-28c86-6 92-12 92-96v-403c0-83-4-89-84-95v-28h257zm-19 32c-54 0-70-4-70 60v196c125 9 203-28 203-128 0-68-38-128-133-128zm-70 289v204c0 72 19 91 83 91 82-1 155-43 155-147 0-118-97-156-238-148" id="R"/><path d="M238 0H15v-26c63-6 72-12 72-78v-473c0-68-6-71-69-76v-24c52-6 114-23 148-35v608c0 66 8 72 72 78V0" id="S"/><path d="M288-449c56 0 100 15 106 57-5 30-27 57-52 32-90-87-225-38-224 119 0 139 95 185 151 185 43 0 76-12 122-55l17 21C364-32 297 12 238 12 112 12 38-90 38-197c0-77 33-144 100-196 52-40 112-56 150-56" id="T"/><path d="M513 0L376 2c-46-51-108-132-164-198-19-22-23-26-47-19v111c0 66 9 72 73 78V0H14v-26c67-6 73-14 73-78v-473c0-66-5-71-66-76v-24c48-5 105-22 144-35v471c71-16 96-74 134-123 23-29 17-39-30-44v-26l204-9v25c-126 21-134 71-215 154 20 30 121 148 155 183 36 38 62 53 100 55V0" id="U"/><g id="s"><use transform="matrix(0.02,0,0,0.02,0,0)" xlink:href="#R"/><use transform="matrix(0.02,0,0,0.02,11.64,0)" xlink:href="#S"/><use transform="matrix(0.02,0,0,0.02,16.700000000000003,0)" xlink:href="#F"/><use transform="matrix(0.02,0,0,0.02,27.080000000000005,0)" xlink:href="#T"/><use transform="matrix(0.02,0,0,0.02,35.42,0)" xlink:href="#U"/></g><g id="t"><use transform="matrix(0.02,0,0,0.02,0,0)" xlink:href="#N"/><use transform="matrix(0.02,0,0,0.02,10.76,0)" xlink:href="#K"/></g><g id="u"><use transform="matrix(0.02,0,0,0.02,0,0)" xlink:href="#N"/><use transform="matrix(0.02,0,0,0.02,10.76,0)" xlink:href="#O"/></g><g id="v"><use transform="matrix(0.02,0,0,0.02,0,0)" xlink:href="#K"/><use transform="matrix(0.02,0,0,0.02,9.6,0)" xlink:href="#M"/><use transform="matrix(0.02,0,0,0.02,16.72,0)" xlink:href="#I"/></g><path d="M384-503c0 70-52 86-99 127 88 17 139 79 139 152C424-62 234 12 162 12 96 12 50-11 46-58c4-17 25-50 47-33 28 21 67 51 124 51 71 0 121-53 121-152 0-119-101-147-191-118l-7-29c92-29 160-68 160-142 0-62-42-94-95-94-55 0-95 42-120 79l-21-20c35-58 82-119 171-119 90 0 149 56 149 132" id="V"/><g id="w"><use transform="matrix(0.02,0,0,0.02,0,0)" xlink:href="#N"/><use transform="matrix(0.02,0,0,0.02,10.76,0)" xlink:href="#V"/></g><g id="x"><use transform="matrix(0.02,0,0,0.02,0,0)" xlink:href="#K"/><use transform="matrix(0.02,0,0,0.02,9.6,0)" xlink:href="#M"/><use transform="matrix(0.02,0,0,0.02,16.72,0)" xlink:href="#K"/></g><path d="M456-178h-96v72c0 67 4 72 85 79V0H189v-27c87-7 91-13 91-79v-72H20v-28c95-142 197-290 300-426h40v407h96v47zm-176-47c-1-98 3-201-2-296-64 90-129 185-195 296h197" id="W"/><g id="y"><use transform="matrix(0.02,0,0,0.02,0,0)" xlink:href="#N"/><use transform="matrix(0.02,0,0,0.02,10.76,0)" xlink:href="#W"/></g></defs></g></svg>