<svg xmlns="http://www.w3.org/2000/svg" xmlns:xlink="http://www.w3.org/1999/xlink" xmlns:lucid="lucid" width="600" height="1260"><g transform="translate(-220 -80)" lucid:page-tab-id="0_0"><path d="M0 0h1360v1760H0z" fill="#fff"/><path d="M240 100h560v160H240z" stroke="#000" stroke-width="2" fill-opacity="0"/><use xlink:href="#a" transform="matrix(1,0,0,1,245,105) translate(160.178 17.086)"/><use xlink:href="#b" transform="matrix(1,0,0,1,245,105) translate(209.858 17.086)"/><use xlink:href="#c" transform="matrix(1,0,0,1,245,105) translate(304.628 17.086)"/><path d="M260 140h160v100H260z" stroke="#000" stroke-width="2" fill-opacity="0"/><use xlink:href="#d" transform="matrix(1,0,0,1,265,145) translate(25.815000000000005 22.086)"/><use xlink:href="#e" transform="matrix(1,0,0,1,265,145) translate(77.565 22.086)"/><use xlink:href="#f" transform="matrix(1,0,0,1,265,145) translate(101.019 22.086)"/><use xlink:href="#g" transform="matrix(1,0,0,1,265,145) translate(115.54499999999999 22.086)"/><use xlink:href="#h" transform="matrix(1,0,0,1,265,145) translate(14.700000000000003 49.086)"/><use xlink:href="#f" transform="matrix(1,0,0,1,265,145) translate(51.15 49.086)"/><use xlink:href="#i" transform="matrix(1,0,0,1,265,145) translate(65.676 49.086)"/><use xlink:href="#j" transform="matrix(1,0,0,1,265,145) translate(78.402 49.086)"/><use xlink:href="#k" transform="matrix(1,0,0,1,265,145) translate(68.844 76.086)"/><path d="M440 140h160v100H440z" stroke="#000" stroke-width="2" fill-opacity="0"/><use xlink:href="#d" transform="matrix(1,0,0,1,445,145) translate(25.815000000000005 22.086)"/><use xlink:href="#e" transform="matrix(1,0,0,1,445,145) translate(77.565 22.086)"/><use xlink:href="#f" transform="matrix(1,0,0,1,445,145) translate(101.019 22.086)"/><use xlink:href="#l" transform="matrix(1,0,0,1,445,145) translate(115.54499999999999 22.086)"/><use xlink:href="#h" transform="matrix(1,0,0,1,445,145) translate(10.379999999999995 49.086)"/><use xlink:href="#f" transform="matrix(1,0,0,1,445,145) translate(46.82999999999999 49.086)"/><use xlink:href="#m" transform="matrix(1,0,0,1,445,145) translate(61.355999999999995 49.086)"/><use xlink:href="#j" transform="matrix(1,0,0,1,445,145) translate(82.722 49.086)"/><use xlink:href="#k" transform="matrix(1,0,0,1,445,145) translate(68.844 76.086)"/><path d="M620 140h160v100H620z" stroke="#000" stroke-width="2" fill-opacity="0"/><use xlink:href="#d" transform="matrix(1,0,0,1,625,145) translate(25.815000000000005 22.086)"/><use xlink:href="#e" transform="matrix(1,0,0,1,625,145) translate(77.565 22.086)"/><use xlink:href="#f" transform="matrix(1,0,0,1,625,145) translate(101.019 22.086)"/><use xlink:href="#n" transform="matrix(1,0,0,1,625,145) translate(115.54499999999999 22.086)"/><use xlink:href="#h" transform="matrix(1,0,0,1,625,145) translate(6.060000000000002 49.086)"/><use xlink:href="#f" transform="matrix(1,0,0,1,625,145) translate(42.51 49.086)"/><use xlink:href="#o" transform="matrix(1,0,0,1,625,145) translate(57.036 49.086)"/><use xlink:href="#j" transform="matrix(1,0,0,1,625,145) translate(87.042 49.086)"/><use xlink:href="#k" transform="matrix(1,0,0,1,625,145) translate(68.844 76.086)"/><path d="M240 280h560v120H240z" stroke="#000" stroke-width="2" fill-opacity="0"/><use xlink:href="#d" transform="matrix(1,0,0,1,245,285) translate(225.815 17.086)"/><use xlink:href="#e" transform="matrix(1,0,0,1,245,285) translate(277.565 17.086)"/><use xlink:href="#f" transform="matrix(1,0,0,1,245,285) translate(301.019 17.086)"/><use xlink:href="#l" transform="matrix(1,0,0,1,245,285) translate(315.54499999999996 17.086)"/><use xlink:href="#h" transform="matrix(1,0,0,1,245,285) translate(210.38 44.086)"/><use xlink:href="#f" transform="matrix(1,0,0,1,245,285) translate(246.82999999999998 44.086)"/><use xlink:href="#m" transform="matrix(1,0,0,1,245,285) translate(261.356 44.086)"/><use xlink:href="#p" transform="matrix(1,0,0,1,245,285) translate(282.722 44.086)"/><path d="M801 279l-200-38.17" fill="none"/><path d="M801 279l-3.85-.73m-7.7-1.47l-7.68-1.47m-7.7-1.47l-7.7-1.47m-7.68-1.47l-7.7-1.47m-7.7-1.47l-7.68-1.48m-7.7-1.47l-7.7-1.46m-7.68-1.48l-7.7-1.47m-7.7-1.47l-7.68-1.47m-7.7-1.45l-7.68-1.47m-7.7-1.47l-7.7-1.46m-7.68-1.47l-7.7-1.46m-7.68-1.46l-7.7-1.47m-7.7-1.47l-7.68-1.46m-7.7-1.47l-3.84-.74" stroke="#000" stroke-width="2" fill="none"/><path d="M804.13 278.58l-.37 1.96-2.95-.56.4-1.96zM601.2 239.85l-.4 1.97-2.93-.57.23-1.25h1.9v-.38z"/><path d="M239 280l200.74-39" fill="none"/><path d="M239 280l3.86-.75m7.72-1.5l7.72-1.5m7.72-1.5l7.72-1.5m7.72-1.5l7.72-1.5m7.73-1.5l7.73-1.5m7.72-1.5l7.72-1.5m7.72-1.5l7.7-1.5m7.73-1.5l7.72-1.5m7.72-1.5l7.72-1.5m7.7-1.5l7.73-1.5m7.72-1.5l7.72-1.5m7.72-1.5l7.72-1.5m7.72-1.5l7.72-1.5m7.72-1.5l3.86-.75" stroke="#000" stroke-width="2" fill="none"/><path d="M239.2 280.98l-2.95.57-.4-1.96 2.96-.58zM440 240h2.6l.27 1.4-2.94.58-.38-1.96.45-.1z"/><path d="M260 340h160v40H260z" stroke="#000" stroke-width="2" fill-opacity="0"/><use xlink:href="#q" transform="matrix(1,0,0,1,265,345) translate(22.71 19.086)"/><use xlink:href="#r" transform="matrix(1,0,0,1,265,345) translate(94.674 19.086)"/><use xlink:href="#s" transform="matrix(1,0,0,1,265,345) translate(118.65 19.086)"/><path d="M440 340h160v40H440z" stroke="#000" stroke-width="2" fill-opacity="0"/><use xlink:href="#q" transform="matrix(1,0,0,1,445,345) translate(22.71 19.086)"/><use xlink:href="#r" transform="matrix(1,0,0,1,445,345) translate(94.674 19.086)"/><use xlink:href="#t" transform="matrix(1,0,0,1,445,345) translate(118.65 19.086)"/><path d="M620 340h160v40H620z" stroke="#000" stroke-width="2" fill-opacity="0"/><use xlink:href="#q" transform="matrix(1,0,0,1,625,345) translate(22.71 19.086)"/><use xlink:href="#r" transform="matrix(1,0,0,1,625,345) translate(94.674 19.086)"/><use xlink:href="#u" transform="matrix(1,0,0,1,625,345) translate(118.65 19.086)"/><path d="M321 419h399v221H321z" stroke="#000" stroke-width="2" fill-opacity="0"/><use xlink:href="#q" transform="matrix(1,0,0,1,326,424) translate(142.21 17.086)"/><use xlink:href="#r" transform="matrix(1,0,0,1,326,424) translate(214.174 17.086)"/><use xlink:href="#t" transform="matrix(1,0,0,1,326,424) translate(238.15 17.086)"/><path d="M719.2 418L601 379.4" fill="none"/><path d="M719.2 418l-3.68-1.2m-7.4-2.42l-7.38-2.4m-7.4-2.42l-7.37-2.42m-7.4-2.4l-7.38-2.42m-7.4-2.4l-7.4-2.43m-7.38-2.42l-7.38-2.4m-7.4-2.43l-7.38-2.4m-7.4-2.42l-7.38-2.4m-7.4-2.43l-3.68-1.2" stroke="#000" stroke-width="2" fill="none"/><path d="M722.37 417.98l-.62 1.9-1.75-.57v-.3h-.95l-.15-.05.62-1.9zM601.3 378.45l-.6 1.9-1.08-.35h.38v-1.98z"/><path d="M320 418.84L441 380" fill="none"/><path d="M320 418.84l3.78-1.2m7.56-2.44l7.57-2.43m7.57-2.43l7.56-2.42m7.56-2.43l7.56-2.44m7.56-2.43l7.56-2.42m7.56-2.42l7.57-2.43m7.57-2.43l7.56-2.42m7.56-2.43l7.56-2.43m7.56-2.43L441 380" stroke="#000" stroke-width="2" fill="none"/><path d="M320.3 419.8l-2.85.9-.6-1.9 2.84-.9z"/><path d="M341 455.75h168.44v68.5H341z" stroke="#000" stroke-width="2" fill-opacity="0"/><g><use xlink:href="#v" transform="matrix(1,0,0,1,346,460.75) translate(18.732 20.086)"/><use xlink:href="#w" transform="matrix(1,0,0,1,346,460.75) translate(131.628 20.086)"/><use xlink:href="#x" transform="matrix(1,0,0,1,346,460.75) translate(52.626000000000005 47.086)"/><use xlink:href="#y" transform="matrix(1,0,0,1,346,460.75) translate(65.352 47.086)"/></g><path d="M531.55 456H700v68.5H531.55z" stroke="#000" stroke-width="2" fill-opacity="0"/><g><use xlink:href="#v" transform="matrix(1,0,0,1,536.5540897097625,461) translate(18.732 20.086)"/><use xlink:href="#z" transform="matrix(1,0,0,1,536.5540897097625,461) translate(131.628 20.086)"/><use xlink:href="#A" transform="matrix(1,0,0,1,536.5540897097625,461) translate(52.626000000000005 47.086)"/><use xlink:href="#y" transform="matrix(1,0,0,1,536.5540897097625,461) translate(65.352 47.086)"/></g><path d="M341 547h168.45v68.5H341z" stroke="#000" stroke-width="2" fill-opacity="0"/><g><use xlink:href="#v" transform="matrix(1,0,0,1,346.00263852242745,552) translate(18.732 20.086)"/><use xlink:href="#B" transform="matrix(1,0,0,1,346.00263852242745,552) translate(131.628 20.086)"/><use xlink:href="#C" transform="matrix(1,0,0,1,346.00263852242745,552) translate(47.631 47.086)"/><use xlink:href="#D" transform="matrix(1,0,0,1,346.00263852242745,552) translate(77.637 47.086)"/></g><path d="M530.5 548h168.44v68.5H530.5z" stroke="#000" stroke-width="2" fill-opacity="0"/><g><use xlink:href="#v" transform="matrix(1,0,0,1,535.5013192612137,553) translate(18.732 20.086)"/><use xlink:href="#E" transform="matrix(1,0,0,1,535.5013192612137,553) translate(131.628 20.086)"/><use xlink:href="#F" transform="matrix(1,0,0,1,535.5013192612137,553) translate(40.062000000000005 47.086)"/><use xlink:href="#G" transform="matrix(1,0,0,1,535.5013192612137,553) translate(77.77199999999999 47.086)"/></g><path d="M420 660h200v125H420z" stroke="#000" stroke-width="2" fill-opacity="0"/><g><use xlink:href="#v" transform="matrix(1,0,0,1,425,665) translate(34.232 17.086)"/><use xlink:href="#B" transform="matrix(1,0,0,1,425,665) translate(147.128 17.086)"/><use xlink:href="#C" transform="matrix(1,0,0,1,425,665) translate(63.131 48.086)"/><use xlink:href="#D" transform="matrix(1,0,0,1,425,665) translate(93.137 48.086)"/></g><path d="M620.3 659l-111.6-42.5" fill="none"/><path d="M620.3 659l-4-1.52m-7.97-3.03l-7.97-3.04m-7.97-3.02l-7.98-3.04m-7.97-3.04l-7.97-3.03m-7.98-3.04l-7.97-3.03m-7.97-3.04l-7.97-3.03m-7.98-3.04l-7.97-3.05m-7.97-3.03l-4-1.52" stroke="#000" stroke-width="2" fill="none"/><path d="M623.45 659.13l-.7 1.87-2.8-1.07.7-1.86zM509.05 615.57l-.72 1.86-2.8-1.06.33-.87h3z"/><path d="M419 659.6l-79-43.1" fill="none"/><path d="M419 659.6l-3.3-1.8m-6.57-3.6l-6.6-3.58m-6.57-3.6l-6.58-3.58m-6.6-3.6l-6.57-3.6m-6.57-3.58l-6.6-3.6m-6.57-3.58l-6.58-3.6m-6.6-3.58l-3.28-1.8" stroke="#000" stroke-width="2" fill="none"/><path d="M421.82 660H420v1.28l-1.48-.8.96-1.76zM340.48 615.62l-.96 1.76-2.63-1.44.95-1.75z"/><path d="M440 725h160v40H440z" stroke="#000" stroke-width="2" fill-opacity="0"/><g><use xlink:href="#H" transform="matrix(1,0,0,1,445,730) translate(27.317999999999998 19.086)"/><use xlink:href="#I" transform="matrix(1,0,0,1,445,730) translate(93.66600000000001 19.086)"/></g><path d="M320.5 805h399v515h-399z" stroke="#000" stroke-width="2" fill-opacity="0"/><g><use xlink:href="#H" transform="matrix(1,0,0,1,325.5,810) translate(146.81799999999998 17.086)"/><use xlink:href="#J" transform="matrix(1,0,0,1,325.5,810) translate(213.166 17.086)"/><use xlink:href="#K" transform="matrix(1,0,0,1,325.5,810) translate(114.742 48.086)"/><use xlink:href="#f" transform="matrix(1,0,0,1,325.5,810) translate(181.46800000000002 48.086)"/><use xlink:href="#L" transform="matrix(1,0,0,1,325.5,810) translate(195.994 48.086)"/><use xlink:href="#p" transform="matrix(1,0,0,1,325.5,810) translate(217.36 48.086)"/></g><path d="M717.7 804L621 786" fill="none"/><path d="M717.7 804l-4.03-.75m-8.06-1.5l-8.05-1.5m-8.06-1.5l-8.07-1.5m-8.05-1.5l-8.06-1.5m-8.06-1.5l-8.06-1.5m-8.06-1.5l-8.05-1.5m-8.07-1.5L621 786" stroke="#000" stroke-width="2" fill="none"/><path d="M720.83 803.57l-.37 1.96-.96-.18V805h-1.9l-.1-.02.38-1.96zM621.18 785.02l-.36 1.96-2.95-.55.26-1.43H620v-.2z"/><path d="M319.5 804.63l99.5-19.7" fill="none"/><path d="M319.5 804.63l4.15-.82m8.3-1.63l8.28-1.64m8.3-1.64l8.28-1.66m8.3-1.64l8.3-1.64m8.3-1.64l8.28-1.64m8.3-1.64l8.28-1.64m8.3-1.65l4.14-.82" stroke="#000" stroke-width="2" fill="none"/><path d="M319.7 805.6l-2.95.6-.4-1.97 2.96-.58zM420 785h2.07l.07.33-2.95.6-.4-1.98 1.2-.23z"/><path d="M341 880h359v67.5H341z" stroke="#000" stroke-width="2" fill="#b2b2b2"/><g><use xlink:href="#M" transform="matrix(1,0,0,1,346,885) translate(95.984 19.586)"/><use xlink:href="#N" transform="matrix(1,0,0,1,346,885) translate(192.788 19.586)"/><use xlink:href="#O" transform="matrix(1,0,0,1,346,885) translate(100.09700000000002 46.586)"/></g><path d="M340 966h359v100H340z" stroke="#000" stroke-width="2" fill-opacity="0"/><g><use xlink:href="#a" transform="matrix(1,0,0,1,345,971) translate(113.18299999999999 22.086)"/><use xlink:href="#P" transform="matrix(1,0,0,1,345,971) translate(162.863 22.086)"/><use xlink:href="#w" transform="matrix(1,0,0,1,345,971) translate(227.177 22.086)"/><use xlink:href="#Q" transform="matrix(1,0,0,1,345,971) translate(114.2 49.086)"/><use xlink:href="#f" transform="matrix(1,0,0,1,345,971) translate(150.65 49.086)"/><use xlink:href="#i" transform="matrix(1,0,0,1,345,971) translate(165.176 49.086)"/><use xlink:href="#R" transform="matrix(1,0,0,1,345,971) translate(177.902 49.086)"/><use xlink:href="#S" transform="matrix(1,0,0,1,345,971) translate(97.53200000000001 76.086)"/></g><path d="M340 1086h359v100H340z" stroke="#000" stroke-width="2" fill-opacity="0"/><g><use xlink:href="#a" transform="matrix(1,0,0,1,345,1091) translate(113.18299999999999 22.086)"/><use xlink:href="#P" transform="matrix(1,0,0,1,345,1091) translate(162.863 22.086)"/><use xlink:href="#z" transform="matrix(1,0,0,1,345,1091) translate(227.177 22.086)"/><use xlink:href="#Q" transform="matrix(1,0,0,1,345,1091) translate(109.88 49.086)"/><use xlink:href="#f" transform="matrix(1,0,0,1,345,1091) translate(146.32999999999998 49.086)"/><use xlink:href="#T" transform="matrix(1,0,0,1,345,1091) translate(160.856 49.086)"/><use xlink:href="#R" transform="matrix(1,0,0,1,345,1091) translate(182.22199999999998 49.086)"/><use xlink:href="#U" transform="matrix(1,0,0,1,345,1091) translate(97.53200000000001 76.086)"/></g><path d="M340 1206h359v100H340z" stroke="#000" stroke-width="2" fill-opacity="0"/><g><use xlink:href="#a" transform="matrix(1,0,0,1,345,1211) translate(113.18299999999999 22.086)"/><use xlink:href="#P" transform="matrix(1,0,0,1,345,1211) translate(162.863 22.086)"/><use xlink:href="#B" transform="matrix(1,0,0,1,345,1211) translate(227.177 22.086)"/><use xlink:href="#Q" transform="matrix(1,0,0,1,345,1211) translate(109.88 49.086)"/><use xlink:href="#f" transform="matrix(1,0,0,1,345,1211) translate(146.32999999999998 49.086)"/><use xlink:href="#V" transform="matrix(1,0,0,1,345,1211) translate(160.856 49.086)"/><use xlink:href="#R" transform="matrix(1,0,0,1,345,1211) translate(182.22199999999998 49.086)"/><use xlink:href="#W" transform="matrix(1,0,0,1,345,1211) translate(97.53200000000001 76.086)"/></g><defs><path d="M861 0H598v-28c81-8 85-13 84-119l-3-408h-4L431-7h-20c-76-178-148-359-226-534-6 133-21 323-18 451 2 48 26 55 92 62V0H26v-28c58-7 78-18 85-60 12-67 27-288 33-391 9-130 4-134-87-143v-28h164l228 500 231-500h170v28c-88 8-95 10-92 113l10 362c3 106 6 111 93 119V0" id="X"/><path d="M37-201c0-127 99-248 213-248 83 0 150 74 150 152 0 20-5 28-23 32-17 3-142 13-261 17C124-52 269-8 379-106l16 21C332-6 263 12 232 12 109 12 37-88 37-201zm277-111c1-52-33-101-89-100-45 0-89 42-104 123 56 0 111-1 169-3 18 0 24-6 24-20" id="Y"/><path d="M517-51v25c-22 4-97 17-155 38v-65c-29 18-112 65-139 65-80 0-185-73-185-213 0-158 157-284 324-237v-141c0-66-5-69-77-74v-24c52-7 119-22 156-35v597c-6 68 27 57 76 64zM362-85v-276c-24-35-65-51-103-51-46 0-130 39-130 184C129-60 260-11 362-85" id="Z"/><path d="M135-536c-26 0-50-24-50-51 0-30 24-52 51-52 28 0 50 22 50 52 0 27-22 51-51 51zM252 0H32v-26c63-6 70-12 70-80v-207c0-61-3-66-63-75v-24c51-8 98-21 142-39v345c0 68 7 74 71 80V0" id="aa"/><path d="M225-449c82-7 127 65 127 149v186c2 67 33 69 71 49l10 26-85 51c-37-1-65-32-71-64-40 27-88 64-118 64C88 12 39-47 39-110c0-110 196-119 236-164 5-79-29-135-84-131-51 3-61 36-75 85-13 45-72 19-73-19 0-15 13-26 32-40 28-20 92-65 150-70zm50 209c-49 31-154 45-151 115 4 97 103 89 151 41v-156" id="ab"/><g id="a"><use transform="matrix(0.018,0,0,0.018,0,0)" xlink:href="#X"/><use transform="matrix(0.018,0,0,0.018,15.57,0)" xlink:href="#Y"/><use transform="matrix(0.018,0,0,0.018,23.31,0)" xlink:href="#Z"/><use transform="matrix(0.018,0,0,0.018,32.814,0)" xlink:href="#aa"/><use transform="matrix(0.018,0,0,0.018,37.692,0)" xlink:href="#ab"/></g><path d="M293-650c139-1 233 49 233 183 0 143-108 209-240 205l-74-19v157c0 85 9 90 99 96V0H40v-28c80-6 88-14 88-97v-400c0-88-8-92-82-97v-28h247zm-14 32c-56 0-67 1-67 59v245c105 29 218 10 218-150 0-108-69-154-151-154" id="ac"/><path d="M181-452c1 36-3 77 2 109 30-50 73-106 121-106 64 0 77 77 26 99-32 14-43-31-69-23-26 0-58 30-80 86v183c0 66 5 72 82 78V0H33v-26c62-6 69-12 69-78v-207c0-66-5-70-62-78v-22c49-8 93-20 141-41" id="ad"/><path d="M320-325l-26 6c-19-59-54-99-103-99-38 0-65 30-65 69 0 44 40 68 85 87 75 31 126 67 126 136 0 91-85 138-165 138-51 0-97-19-115-34-7-14-16-82-16-118l26-5C85-79 130-21 190-21c37 0 71-28 71-70 0-44-29-68-79-91-60-28-125-61-125-138 0-70 60-129 152-129 41 0 68 9 89 17 8 23 19 82 22 107" id="ae"/><path d="M181-372c38-25 93-77 150-77 79 0 129 55 129 152v193c0 68 5 72 63 78V0H315v-26c59-6 66-14 66-83 0-116 35-281-91-281-40 0-79 25-109 51v235c0 68 6 72 65 78V0H29v-26c68-7 73-12 73-78v-207c0-64-6-67-60-77v-23c48-9 95-21 139-41v80" id="af"/><path d="M298-36c-32 14-72 48-110 48-63 0-98-40-98-119v-291H21l-4-10 27-29h46v-73l65-66 14 2v137h113c9 10 6 32-6 39H169v257c2 119 61 103 120 79" id="ag"/><path d="M37-209c0-165 128-240 220-240 123 0 216 99 216 223C473-65 355 12 256 12 119 12 37-98 37-209zm343 5c0-117-47-213-135-212-61 0-115 62-115 175 0 126 55 220 137 220 62 0 113-46 113-183" id="ah"/><g id="b"><use transform="matrix(0.018,0,0,0.018,0,0)" xlink:href="#ac"/><use transform="matrix(0.018,0,0,0.018,9.971999999999998,0)" xlink:href="#ad"/><use transform="matrix(0.018,0,0,0.018,16.415999999999997,0)" xlink:href="#Y"/><use transform="matrix(0.018,0,0,0.018,24.065999999999995,0)" xlink:href="#ae"/><use transform="matrix(0.018,0,0,0.018,30.815999999999992,0)" xlink:href="#Y"/><use transform="matrix(0.018,0,0,0.018,38.465999999999994,0)" xlink:href="#af"/><use transform="matrix(0.018,0,0,0.018,47.97,0)" xlink:href="#ag"/><use transform="matrix(0.018,0,0,0.018,53.568,0)" xlink:href="#ab"/><use transform="matrix(0.018,0,0,0.018,61.47,0)" xlink:href="#ag"/><use transform="matrix(0.018,0,0,0.018,67.05,0)" xlink:href="#aa"/><use transform="matrix(0.018,0,0,0.018,71.874,0)" xlink:href="#ah"/><use transform="matrix(0.018,0,0,0.018,80.838,0)" xlink:href="#af"/></g><path d="M690-350C690-113 514 3 270 0H33v-27c86-6 94-12 94-97v-401c0-86-8-90-85-96v-29h281c227-1 367 86 367 300zM304-616c-77 5-90-11-91 69v416c0 76 33 95 106 95 187 0 273-140 273-300 0-166-107-291-288-280" id="ai"/><path d="M288-449c56 0 100 15 106 57-5 30-27 57-52 32-90-87-225-38-224 119 0 139 95 185 151 185 43 0 76-12 122-55l17 21C364-32 297 12 238 12 112 12 38-90 38-197c0-77 33-144 100-196 52-40 112-56 150-56" id="aj"/><path d="M169-380c44-21 85-69 141-69 111 0 177 90 177 189 0 151-119 248-249 272-29-1-56-11-69-18v131c0 76 7 81 85 88v27H17v-27c64-6 73-12 73-78v-452c0-65-4-67-66-75v-24c42-7 98-24 145-43v79zm0 33v271c22 23 60 39 94 39 84 0 140-72 140-185 0-107-61-167-134-167-32 0-73 22-100 42" id="ak"/><g id="c"><use transform="matrix(0.018,0,0,0.018,0,0)" xlink:href="#ai"/><use transform="matrix(0.018,0,0,0.018,13.338,0)" xlink:href="#Y"/><use transform="matrix(0.018,0,0,0.018,20.988,0)" xlink:href="#ae"/><use transform="matrix(0.018,0,0,0.018,27.738,0)" xlink:href="#aj"/><use transform="matrix(0.018,0,0,0.018,35.352,0)" xlink:href="#ad"/><use transform="matrix(0.018,0,0,0.018,42.13799999999999,0)" xlink:href="#aa"/><use transform="matrix(0.018,0,0,0.018,46.74599999999999,0)" xlink:href="#ak"/><use transform="matrix(0.018,0,0,0.018,55.97999999999999,0)" xlink:href="#ag"/><use transform="matrix(0.018,0,0,0.018,61.559999999999995,0)" xlink:href="#aa"/><use transform="matrix(0.018,0,0,0.018,66.384,0)" xlink:href="#ah"/><use transform="matrix(0.018,0,0,0.018,75.34800000000001,0)" xlink:href="#af"/></g><g id="d"><use transform="matrix(0.018,0,0,0.018,0,0)" xlink:href="#ac"/><use transform="matrix(0.018,0,0,0.018,9.557999999999998,0)" xlink:href="#Y"/><use transform="matrix(0.018,0,0,0.018,17.208,0)" xlink:href="#ad"/><use transform="matrix(0.018,0,0,0.018,23.994,0)" xlink:href="#aa"/><use transform="matrix(0.018,0,0,0.018,28.817999999999998,0)" xlink:href="#ah"/><use transform="matrix(0.018,0,0,0.018,38.16,0)" xlink:href="#Z"/></g><path d="M303 0H38v-28c82-6 90-12 90-97v-400c0-85-8-91-90-97v-28h265v28c-82 6-90 12-90 97v400c0 86 8 91 90 97V0" id="al"/><g id="e"><use transform="matrix(0.018,0,0,0.018,0,0)" xlink:href="#al"/><use transform="matrix(0.018,0,0,0.018,6.138,0)" xlink:href="#ai"/></g><path d="M529-321H52v-50h477v50zm0 183H52v-50h477v50" id="am"/><use transform="matrix(0.018,0,0,0.018,0,0)" xlink:href="#am" id="f"/><path d="M384 0H109v-27c91-7 96-15 96-87v-385c0-52-4-57-48-59l-48-2v-23c64-11 123-30 178-52v521c0 72 6 80 97 87V0" id="an"/><use transform="matrix(0.018,0,0,0.018,0,0)" xlink:href="#an" id="g"/><g id="h"><use transform="matrix(0.018,0,0,0.018,0,0)" xlink:href="#ae"/><use transform="matrix(0.018,0,0,0.018,6.515999999999999,0)" xlink:href="#ag"/><use transform="matrix(0.018,0,0,0.018,12.113999999999999,0)" xlink:href="#ab"/><use transform="matrix(0.018,0,0,0.018,20.016,0)" xlink:href="#ad"/><use transform="matrix(0.018,0,0,0.018,26.874,0)" xlink:href="#ag"/></g><path d="M35-311c0-146 55-325 206-324 149 0 202 169 202 323 0 146-53 324-203 324C89 12 35-153 35-311zm319-1c0-142-25-291-116-290-90 0-114 150-114 289 0 140 29 291 116 291 90 0 114-150 114-290" id="ao"/><use transform="matrix(0.018,0,0,0.018,0,0)" xlink:href="#ao" id="i"/><g id="j"><use transform="matrix(0.018,0,0,0.018,0,0)" xlink:href="#ae"/><use transform="matrix(0.018,0,0,0.018,6.749999999999999,0)" xlink:href="#Y"/><use transform="matrix(0.018,0,0,0.018,14.489999999999998,0)" xlink:href="#aj"/><use transform="matrix(0.018,0,0,0.018,22.104,0)" xlink:href="#ah"/><use transform="matrix(0.018,0,0,0.018,31.067999999999998,0)" xlink:href="#af"/><use transform="matrix(0.018,0,0,0.018,40.842,0)" xlink:href="#Z"/><use transform="matrix(0.018,0,0,0.018,50.291999999999994,0)" xlink:href="#ae"/></g><path d="M170-46c0 35-24 58-57 58-31 0-55-23-55-58 0-32 24-57 56-57s56 25 56 57" id="ap"/><g id="k"><use transform="matrix(0.018,0,0,0.018,0,0)" xlink:href="#ap"/><use transform="matrix(0.018,0,0,0.018,4.104,0)" xlink:href="#ap"/><use transform="matrix(0.018,0,0,0.018,8.208,0)" xlink:href="#ap"/></g><path d="M412-140l28 9c-13 42-23 86-35 131H31v-23c56-55 112-112 162-170 62-74 125-156 125-242 0-84-44-133-118-133-68 0-110 54-136 93l-22-20c43-65 86-141 192-140 88 0 168 64 168 169 0 140-191 293-274 393h187c54 0 67-4 97-67" id="aq"/><use transform="matrix(0.018,0,0,0.018,0,0)" xlink:href="#aq" id="l"/><path d="M137-343c38-17 82-50 130-50 107 0 180 82 180 185 0 119-85 220-205 220C125 12 37-84 37-238c0-219 152-332 258-371 40-14 88-25 128-32l7 32c-33 6-72 18-109 35-61 29-154 92-184 231zm224 171c0-83-42-166-134-165-37 0-71 15-95 28-25 130 27 287 127 287 78 0 102-84 102-150" id="ar"/><g id="m"><use transform="matrix(0.018,0,0,0.018,0,0)" xlink:href="#ar"/><use transform="matrix(0.018,0,0,0.018,8.639999999999999,0)" xlink:href="#ao"/></g><path d="M384-503c0 70-52 86-99 127 88 17 139 79 139 152C424-62 234 12 162 12 96 12 50-11 46-58c4-17 25-50 47-33 28 21 67 51 124 51 71 0 121-53 121-152 0-119-101-147-191-118l-7-29c92-29 160-68 160-142 0-62-42-94-95-94-55 0-95 42-120 79l-21-20c35-58 82-119 171-119 90 0 149 56 149 132" id="as"/><use transform="matrix(0.018,0,0,0.018,0,0)" xlink:href="#as" id="n"/><g id="o"><use transform="matrix(0.018,0,0,0.018,0,0)" xlink:href="#an"/><use transform="matrix(0.018,0,0,0.018,8.639999999999999,0)" xlink:href="#aq"/><use transform="matrix(0.018,0,0,0.018,17.279999999999998,0)" xlink:href="#ao"/></g><g id="p"><use transform="matrix(0.018,0,0,0.018,0,0)" xlink:href="#ae"/><use transform="matrix(0.018,0,0,0.018,6.749999999999999,0)" xlink:href="#Y"/><use transform="matrix(0.018,0,0,0.018,14.489999999999998,0)" xlink:href="#aj"/><use transform="matrix(0.018,0,0,0.018,22.104,0)" xlink:href="#ah"/><use transform="matrix(0.018,0,0,0.018,31.067999999999998,0)" xlink:href="#af"/><use transform="matrix(0.018,0,0,0.018,40.842,0)" xlink:href="#Z"/><use transform="matrix(0.018,0,0,0.018,50.291999999999994,0)" xlink:href="#ae"/></g><path d="M673 0H428v-28c63-8 72-16 59-55s-33-93-55-154H219c-16 45-30 87-44 129-21 63-13 73 62 80V0H20v-28c63-9 77-15 112-103l207-525 31-9c62 172 129 362 193 536 32 86 45 95 110 101V0zM418-280c-30-85-57-173-90-255-32 86-64 173-94 255h184" id="at"/><g id="q"><use transform="matrix(0.018,0,0,0.018,0,0)" xlink:href="#at"/><use transform="matrix(0.018,0,0,0.018,11.969999999999999,0)" xlink:href="#Z"/><use transform="matrix(0.018,0,0,0.018,21.528,0)" xlink:href="#ab"/><use transform="matrix(0.018,0,0,0.018,29.429999999999996,0)" xlink:href="#ak"/><use transform="matrix(0.018,0,0,0.018,38.66400000000001,0)" xlink:href="#ag"/><use transform="matrix(0.018,0,0,0.018,44.24400000000001,0)" xlink:href="#aa"/><use transform="matrix(0.018,0,0,0.018,49.068000000000005,0)" xlink:href="#ah"/><use transform="matrix(0.018,0,0,0.018,58.032000000000004,0)" xlink:href="#af"/></g><g id="r"><use transform="matrix(0.018,0,0,0.018,0,0)" xlink:href="#ae"/><use transform="matrix(0.018,0,0,0.018,6.749999999999999,0)" xlink:href="#Y"/><use transform="matrix(0.018,0,0,0.018,14.399999999999999,0)" xlink:href="#ag"/></g><use transform="matrix(0.018,0,0,0.018,0,0)" xlink:href="#ao" id="s"/><use transform="matrix(0.018,0,0,0.018,0,0)" xlink:href="#an" id="t"/><use transform="matrix(0.018,0,0,0.018,0,0)" xlink:href="#aq" id="u"/><path d="M290-650c139-3 226 42 226 165 0 86-53 139-127 171 35 65 123 200 170 249 28 29 50 41 72 47l-4 26c-99 0-145-18-197-92-35-49-74-109-101-160-18-35-58-43-118-40v159c0 85 9 91 89 97V0H37v-28c82-6 91-12 91-97v-402c0-85-8-88-86-95v-28h248zm-14 33c-55 0-65-2-65 54v246h48c109 5 163-58 164-152 0-108-71-148-147-148" id="au"/><g id="v"><use transform="matrix(0.018,0,0,0.018,0,0)" xlink:href="#au"/><use transform="matrix(0.018,0,0,0.018,11.232,0)" xlink:href="#Y"/><use transform="matrix(0.018,0,0,0.018,18.881999999999998,0)" xlink:href="#ak"/><use transform="matrix(0.018,0,0,0.018,28.097999999999995,0)" xlink:href="#ad"/><use transform="matrix(0.018,0,0,0.018,34.541999999999994,0)" xlink:href="#Y"/><use transform="matrix(0.018,0,0,0.018,42.192,0)" xlink:href="#ae"/><use transform="matrix(0.018,0,0,0.018,48.94199999999999,0)" xlink:href="#Y"/><use transform="matrix(0.018,0,0,0.018,56.592,0)" xlink:href="#af"/><use transform="matrix(0.018,0,0,0.018,66.09599999999999,0)" xlink:href="#ag"/><use transform="matrix(0.018,0,0,0.018,71.69399999999999,0)" xlink:href="#ab"/><use transform="matrix(0.018,0,0,0.018,79.59599999999999,0)" xlink:href="#ag"/><use transform="matrix(0.018,0,0,0.018,85.17599999999999,0)" xlink:href="#aa"/><use transform="matrix(0.018,0,0,0.018,90,0)" xlink:href="#ah"/><use transform="matrix(0.018,0,0,0.018,98.964,0)" xlink:href="#af"/></g><use transform="matrix(0.018,0,0,0.018,0,0)" xlink:href="#an" id="w"/><path d="M431-226C431-81 199 86 65-23c-29-23-18-45 5-67 8-8 17-8 27 0 21 19 62 51 123 51 85 0 127-73 127-148 0-88-54-151-163-151-42 0-80 11-103 20l39-305h285l6 8-26 65H152l-26 185c38-14 85-30 112-30 128 0 193 87 193 169" id="av"/><use transform="matrix(0.018,0,0,0.018,0,0)" xlink:href="#av" id="x"/><path d="M152-404c38-14 77-45 122-45 107 0 197 92 197 210C471-35 257 74 73-24v-556c0-62-2-68-66-74v-23c47-6 108-21 145-35v308zm0 288c3 54 24 90 95 90 83 0 136-71 136-187 1-147-117-216-231-161v258" id="aw"/><g id="y"><use transform="matrix(0.018,0,0,0.018,0,0)" xlink:href="#X"/><use transform="matrix(0.018,0,0,0.018,16.038,0)" xlink:href="#aw"/><use transform="matrix(0.018,0,0,0.018,24.984,0)" xlink:href="#ak"/><use transform="matrix(0.018,0,0,0.018,34.416,0)" xlink:href="#ae"/></g><use transform="matrix(0.018,0,0,0.018,0,0)" xlink:href="#aq" id="z"/><use transform="matrix(0.018,0,0,0.018,0,0)" xlink:href="#aq" id="A"/><use transform="matrix(0.018,0,0,0.018,0,0)" xlink:href="#as" id="B"/><g id="C"><use transform="matrix(0.018,0,0,0.018,0,0)" xlink:href="#av"/><use transform="matrix(0.018,0,0,0.018,8.639999999999999,0)" xlink:href="#ao"/><use transform="matrix(0.018,0,0,0.018,17.279999999999998,0)" xlink:href="#ao"/></g><path d="M513 0L376 2c-46-51-108-132-164-198-19-22-23-26-47-19v111c0 66 9 72 73 78V0H14v-26c67-6 73-14 73-78v-473c0-66-5-71-66-76v-24c48-5 105-22 144-35v471c71-16 96-74 134-123 23-29 17-39-30-44v-26l204-9v25c-126 21-134 71-215 154 20 30 121 148 155 183 36 38 62 53 100 55V0" id="ax"/><g id="D"><use transform="matrix(0.018,0,0,0.018,0,0)" xlink:href="#ax"/><use transform="matrix(0.018,0,0,0.018,8.748,0)" xlink:href="#aw"/><use transform="matrix(0.018,0,0,0.018,17.694,0)" xlink:href="#ak"/><use transform="matrix(0.018,0,0,0.018,27.125999999999998,0)" xlink:href="#ae"/></g><path d="M456-178h-96v72c0 67 4 72 85 79V0H189v-27c87-7 91-13 91-79v-72H20v-28c95-142 197-290 300-426h40v407h96v47zm-176-47c-1-98 3-201-2-296-64 90-129 185-195 296h197" id="ay"/><use transform="matrix(0.018,0,0,0.018,0,0)" xlink:href="#ay" id="E"/><g id="F"><use transform="matrix(0.018,0,0,0.018,0,0)" xlink:href="#ag"/><use transform="matrix(0.018,0,0,0.018,5.579999999999999,0)" xlink:href="#ad"/><use transform="matrix(0.018,0,0,0.018,12.366,0)" xlink:href="#aa"/><use transform="matrix(0.018,0,0,0.018,17.189999999999998,0)" xlink:href="#aj"/><use transform="matrix(0.018,0,0,0.018,24.695999999999998,0)" xlink:href="#ax"/></g><path d="M446-367c53-34 86-82 158-82 78 0 127 55 127 153v193c0 67 8 71 65 77V0H583v-26c59-6 70-10 70-81 0-114 33-283-88-283-36 0-74 20-112 52 7 72 3 160 3 237 0 63 9 69 64 75V0H306v-26c62-6 71-11 71-77 0-113 33-287-87-287-40 0-79 27-109 52v235c0 65 8 71 57 77V0H27v-26c66-6 75-12 75-77v-207c0-64-3-69-61-78v-23c44-8 95-21 139-41v81c38-23 91-79 155-78 48 0 91 30 111 82" id="az"/><g id="G"><use transform="matrix(0.018,0,0,0.018,0,0)" xlink:href="#az"/><use transform="matrix(0.018,0,0,0.018,14.670000000000002,0)" xlink:href="#ah"/><use transform="matrix(0.018,0,0,0.018,24.012000000000004,0)" xlink:href="#Z"/><use transform="matrix(0.018,0,0,0.018,33.516,0)" xlink:href="#Y"/></g><path d="M409-504l-29 6c-18-64-44-133-131-133-77 0-111 56-111 110 0 73 48 107 127 148 78 40 173 87 173 199 0 105-89 189-222 189-62 1-114-19-147-36-8-21-21-107-27-155l29-7c16 61 61 162 164 162 75 0 120-47 120-120 0-74-55-109-130-149-64-34-165-84-165-197 0-96 77-178 206-178 46 0 88 11 126 23 4 36 9 75 17 138" id="aA"/><path d="M29 135C29 70 98 46 136 9 86-9 54-37 51-88c40-15 72-41 88-61-45-19-88-66-88-134 0-152 162-201 275-141 49-2 100-8 136-14l6 8c-9 16-29 43-45 51l-57-3c19 22 30 53 30 89 0 126-112 177-226 155-43 26-44 80 33 80 36 0 72-1 105-1 62 0 144 20 144 118 0 101-117 198-250 198-111 0-173-65-173-122zm285-419c0-79-37-135-95-135-43 0-82 42-82 120s38 134 94 134c44 0 83-40 83-119zm70 379c0-70-63-84-143-84-47 0-69 7-87 22-26 22-46 49-46 78 0 54 58 95 132 95 95 0 144-49 144-111" id="aB"/><g id="H"><use transform="matrix(0.018,0,0,0.018,0,0)" xlink:href="#aA"/><use transform="matrix(0.018,0,0,0.018,8.784,0)" xlink:href="#Y"/><use transform="matrix(0.018,0,0,0.018,16.434,0)" xlink:href="#aB"/><use transform="matrix(0.018,0,0,0.018,24.948000000000004,0)" xlink:href="#az"/><use transform="matrix(0.018,0,0,0.018,39.618,0)" xlink:href="#Y"/><use transform="matrix(0.018,0,0,0.018,47.26800000000001,0)" xlink:href="#af"/><use transform="matrix(0.018,0,0,0.018,56.772000000000006,0)" xlink:href="#ag"/></g><path d="M54-437h47c-1-39 2-77 11-104 7-22 25-69 77-117 53-49 140-78 189-20 19 23 4 45-14 59-9 7-18 7-27-3-28-34-109-58-134-7-17 12-26 115-23 192h118c6 9 1 33-10 39H180v288c0 74 7 77 86 85V0H30v-26c64-6 71-11 71-77v-295H31l-4-10" id="aC"/><g id="I"><use transform="matrix(0.018,0,0,0.018,0,0)" xlink:href="#aa"/><use transform="matrix(0.018,0,0,0.018,4.824,0)" xlink:href="#af"/><use transform="matrix(0.018,0,0,0.018,14.670000000000002,0)" xlink:href="#aC"/><use transform="matrix(0.018,0,0,0.018,19.836,0)" xlink:href="#ah"/></g><g id="J"><use transform="matrix(0.018,0,0,0.018,0,0)" xlink:href="#aa"/><use transform="matrix(0.018,0,0,0.018,4.824,0)" xlink:href="#af"/><use transform="matrix(0.018,0,0,0.018,14.670000000000002,0)" xlink:href="#aC"/><use transform="matrix(0.018,0,0,0.018,19.836,0)" xlink:href="#ah"/></g><path d="M287-426c46-2 119-11 157-18v334c-5 65 25 57 74 61v25c-44 5-109 25-147 36l-6-6v-71c-37 26-92 77-151 77-67 0-124-41-124-149v-196c2-70-20-58-61-70v-23c40-2 109-12 143-18-5 59-3 202-3 281 0 149 123 129 196 64v-233c6-74-31-60-78-71v-23" id="aD"/><g id="K"><use transform="matrix(0.018,0,0,0.018,0,0)" xlink:href="#Z"/><use transform="matrix(0.018,0,0,0.018,9.287999999999998,0)" xlink:href="#aD"/><use transform="matrix(0.018,0,0,0.018,18.846,0)" xlink:href="#ad"/><use transform="matrix(0.018,0,0,0.018,25.524,0)" xlink:href="#ab"/><use transform="matrix(0.018,0,0,0.018,33.426,0)" xlink:href="#ag"/><use transform="matrix(0.018,0,0,0.018,39.00600000000001,0)" xlink:href="#aa"/><use transform="matrix(0.018,0,0,0.018,43.830000000000005,0)" xlink:href="#ah"/><use transform="matrix(0.018,0,0,0.018,52.794000000000004,0)" xlink:href="#af"/></g><g id="L"><use transform="matrix(0.018,0,0,0.018,0,0)" xlink:href="#ay"/><use transform="matrix(0.018,0,0,0.018,8.639999999999999,0)" xlink:href="#av"/></g><path d="M238 0H15v-26c63-6 72-12 72-78v-473c0-68-6-71-69-76v-24c52-6 114-23 148-35v608c0 66 8 72 72 78V0" id="aE"/><path d="M387-138l26 12c-15 39-31 86-46 126H37l-6-15c86-127 167-255 249-389h-89c-84-8-96 41-127 99l-25-9c11-38 26-102 34-145h21c6 16 18 22 55 22h230l6 14C303-295 223-167 141-33h99c85 5 111-41 147-105" id="aF"/><g id="M"><use transform="matrix(0.018,0,0,0.018,0,0)" xlink:href="#al"/><use transform="matrix(0.018,0,0,0.018,5.85,0)" xlink:href="#af"/><use transform="matrix(0.018,0,0,0.018,15.695999999999998,0)" xlink:href="#aa"/><use transform="matrix(0.018,0,0,0.018,20.304000000000002,0)" xlink:href="#ag"/><use transform="matrix(0.018,0,0,0.018,25.884000000000004,0)" xlink:href="#aa"/><use transform="matrix(0.018,0,0,0.018,30.762,0)" xlink:href="#ab"/><use transform="matrix(0.018,0,0,0.018,38.66400000000001,0)" xlink:href="#aE"/><use transform="matrix(0.018,0,0,0.018,43.218,0)" xlink:href="#aa"/><use transform="matrix(0.018,0,0,0.018,48.042,0)" xlink:href="#aF"/><use transform="matrix(0.018,0,0,0.018,55.602000000000004,0)" xlink:href="#ab"/><use transform="matrix(0.018,0,0,0.018,63.504000000000005,0)" xlink:href="#ag"/><use transform="matrix(0.018,0,0,0.018,69.084,0)" xlink:href="#aa"/><use transform="matrix(0.018,0,0,0.018,73.908,0)" xlink:href="#ah"/><use transform="matrix(0.018,0,0,0.018,82.87200000000001,0)" xlink:href="#af"/></g><g id="N"><use transform="matrix(0.018,0,0,0.018,0,0)" xlink:href="#ae"/><use transform="matrix(0.018,0,0,0.018,6.749999999999999,0)" xlink:href="#Y"/><use transform="matrix(0.018,0,0,0.018,14.399999999999999,0)" xlink:href="#aB"/><use transform="matrix(0.018,0,0,0.018,22.913999999999998,0)" xlink:href="#az"/><use transform="matrix(0.018,0,0,0.018,37.583999999999996,0)" xlink:href="#Y"/><use transform="matrix(0.018,0,0,0.018,45.233999999999995,0)" xlink:href="#af"/><use transform="matrix(0.018,0,0,0.018,54.73799999999999,0)" xlink:href="#ag"/></g><path d="M513 0H302v-26c58-6 66-12 66-77v-166c0-82-31-123-98-123-38 0-76 19-104 51v238c0 64 5 71 64 77V0H18l1-26c60-5 68-11 68-77v-477c0-63-2-68-68-74v-23c48-7 108-23 147-35v336c35-36 89-73 143-73 81-1 138 51 138 171v175c0 66 7 72 66 77V0" id="aG"/><path d="M59-355c0-33 23-56 56-56 31 0 55 23 55 56 0 34-24 58-56 58s-55-24-55-58zM171-46c0 35-24 58-57 58-31 0-55-23-55-58 0-32 24-57 56-57s56 25 56 57" id="aH"/><path d="M298-665L81 44H25l217-709h56" id="aI"/><path d="M475 0H260v-26c43-5 51-13 34-40l-74-117c-22 33-45 70-64 106-19 34-17 43 35 51V0H4v-26c62-8 73-16 113-66 28-35 55-75 84-120l-87-136c-30-49-43-57-98-64v-25h200v25c-43 6-46 15-28 43l59 92c20-29 40-60 58-93 18-32 11-37-32-42v-25h182v25c-115 9-122 82-188 164l98 148c37 57 49 66 110 74V0" id="aJ"/><g id="O"><use transform="matrix(0.018,0,0,0.018,0,0)" xlink:href="#aG"/><use transform="matrix(0.018,0,0,0.018,9.27,0)" xlink:href="#ag"/><use transform="matrix(0.018,0,0,0.018,14.579999999999998,0)" xlink:href="#ag"/><use transform="matrix(0.018,0,0,0.018,19.889999999999997,0)" xlink:href="#ak"/><use transform="matrix(0.018,0,0,0.018,29.321999999999992,0)" xlink:href="#aH"/><use transform="matrix(0.018,0,0,0.018,33.425999999999995,0)" xlink:href="#aI"/><use transform="matrix(0.018,0,0,0.018,39.384,0)" xlink:href="#aI"/><use transform="matrix(0.018,0,0,0.018,45.34199999999999,0)" xlink:href="#Y"/><use transform="matrix(0.018,0,0,0.018,52.99199999999999,0)" xlink:href="#aJ"/><use transform="matrix(0.018,0,0,0.018,61.487999999999985,0)" xlink:href="#ap"/><use transform="matrix(0.018,0,0,0.018,65.59199999999998,0)" xlink:href="#aj"/><use transform="matrix(0.018,0,0,0.018,73.20599999999999,0)" xlink:href="#ah"/><use transform="matrix(0.018,0,0,0.018,82.16999999999999,0)" xlink:href="#az"/><use transform="matrix(0.018,0,0,0.018,96.91199999999999,0)" xlink:href="#aI"/><use transform="matrix(0.018,0,0,0.018,102.86999999999999,0)" xlink:href="#aa"/><use transform="matrix(0.018,0,0,0.018,107.78399999999999,0)" xlink:href="#aE"/><use transform="matrix(0.018,0,0,0.018,112.22999999999999,0)" xlink:href="#ap"/><use transform="matrix(0.018,0,0,0.018,116.33399999999999,0)" xlink:href="#az"/><use transform="matrix(0.018,0,0,0.018,130.73399999999998,0)" xlink:href="#ak"/><use transform="matrix(0.018,0,0,0.018,140.16599999999997,0)" xlink:href="#ay"/></g><g id="P"><use transform="matrix(0.018,0,0,0.018,0,0)" xlink:href="#ae"/><use transform="matrix(0.018,0,0,0.018,6.749999999999999,0)" xlink:href="#Y"/><use transform="matrix(0.018,0,0,0.018,14.399999999999999,0)" xlink:href="#aB"/><use transform="matrix(0.018,0,0,0.018,22.913999999999998,0)" xlink:href="#az"/><use transform="matrix(0.018,0,0,0.018,37.583999999999996,0)" xlink:href="#Y"/><use transform="matrix(0.018,0,0,0.018,45.233999999999995,0)" xlink:href="#af"/><use transform="matrix(0.018,0,0,0.018,54.73799999999999,0)" xlink:href="#ag"/></g><g id="Q"><use transform="matrix(0.018,0,0,0.018,0,0)" xlink:href="#ae"/><use transform="matrix(0.018,0,0,0.018,6.515999999999999,0)" xlink:href="#ag"/><use transform="matrix(0.018,0,0,0.018,12.113999999999999,0)" xlink:href="#ab"/><use transform="matrix(0.018,0,0,0.018,20.016,0)" xlink:href="#ad"/><use transform="matrix(0.018,0,0,0.018,26.874,0)" xlink:href="#ag"/></g><g id="R"><use transform="matrix(0.018,0,0,0.018,0,0)" xlink:href="#ae"/><use transform="matrix(0.018,0,0,0.018,6.749999999999999,0)" xlink:href="#Y"/><use transform="matrix(0.018,0,0,0.018,14.489999999999998,0)" xlink:href="#aj"/><use transform="matrix(0.018,0,0,0.018,22.104,0)" xlink:href="#ah"/><use transform="matrix(0.018,0,0,0.018,31.067999999999998,0)" xlink:href="#af"/><use transform="matrix(0.018,0,0,0.018,40.842,0)" xlink:href="#Z"/><use transform="matrix(0.018,0,0,0.018,50.291999999999994,0)" xlink:href="#ae"/></g><path d="M477-437v25c-52 7-61 16-88 76-33 75-86 198-141 347h-27c-45-120-91-234-138-350-23-58-31-65-85-73v-25h205v25c-54 7-56 15-40 58 26 70 66 175 95 247 35-83 68-174 89-239 16-48 9-59-48-66v-25h178" id="aK"/><g id="S"><use transform="matrix(0.018,0,0,0.018,0,0)" xlink:href="#aG"/><use transform="matrix(0.018,0,0,0.018,9.27,0)" xlink:href="#ag"/><use transform="matrix(0.018,0,0,0.018,14.579999999999998,0)" xlink:href="#ag"/><use transform="matrix(0.018,0,0,0.018,19.889999999999997,0)" xlink:href="#ak"/><use transform="matrix(0.018,0,0,0.018,29.321999999999992,0)" xlink:href="#aH"/><use transform="matrix(0.018,0,0,0.018,33.425999999999995,0)" xlink:href="#aI"/><use transform="matrix(0.018,0,0,0.018,39.384,0)" xlink:href="#aI"/><use transform="matrix(0.018,0,0,0.018,45.34199999999999,0)" xlink:href="#Y"/><use transform="matrix(0.018,0,0,0.018,52.99199999999999,0)" xlink:href="#aJ"/><use transform="matrix(0.018,0,0,0.018,61.487999999999985,0)" xlink:href="#ap"/><use transform="matrix(0.018,0,0,0.018,65.59199999999998,0)" xlink:href="#aj"/><use transform="matrix(0.018,0,0,0.018,73.20599999999999,0)" xlink:href="#ah"/><use transform="matrix(0.018,0,0,0.018,82.16999999999999,0)" xlink:href="#az"/><use transform="matrix(0.018,0,0,0.018,96.91199999999999,0)" xlink:href="#aI"/><use transform="matrix(0.018,0,0,0.018,102.86999999999999,0)" xlink:href="#aK"/><use transform="matrix(0.018,0,0,0.018,111.204,0)" xlink:href="#an"/><use transform="matrix(0.018,0,0,0.018,119.844,0)" xlink:href="#ap"/><use transform="matrix(0.018,0,0,0.018,123.948,0)" xlink:href="#az"/><use transform="matrix(0.018,0,0,0.018,138.69,0)" xlink:href="#ay"/><use transform="matrix(0.018,0,0,0.018,147.32999999999998,0)" xlink:href="#ae"/></g><g id="T"><use transform="matrix(0.018,0,0,0.018,0,0)" xlink:href="#an"/><use transform="matrix(0.018,0,0,0.018,8.639999999999999,0)" xlink:href="#av"/></g><g id="U"><use transform="matrix(0.018,0,0,0.018,0,0)" xlink:href="#aG"/><use transform="matrix(0.018,0,0,0.018,9.27,0)" xlink:href="#ag"/><use transform="matrix(0.018,0,0,0.018,14.579999999999998,0)" xlink:href="#ag"/><use transform="matrix(0.018,0,0,0.018,19.889999999999997,0)" xlink:href="#ak"/><use transform="matrix(0.018,0,0,0.018,29.321999999999992,0)" xlink:href="#aH"/><use transform="matrix(0.018,0,0,0.018,33.425999999999995,0)" xlink:href="#aI"/><use transform="matrix(0.018,0,0,0.018,39.384,0)" xlink:href="#aI"/><use transform="matrix(0.018,0,0,0.018,45.34199999999999,0)" xlink:href="#Y"/><use transform="matrix(0.018,0,0,0.018,52.99199999999999,0)" xlink:href="#aJ"/><use transform="matrix(0.018,0,0,0.018,61.487999999999985,0)" xlink:href="#ap"/><use transform="matrix(0.018,0,0,0.018,65.59199999999998,0)" xlink:href="#aj"/><use transform="matrix(0.018,0,0,0.018,73.20599999999999,0)" xlink:href="#ah"/><use transform="matrix(0.018,0,0,0.018,82.16999999999999,0)" xlink:href="#az"/><use transform="matrix(0.018,0,0,0.018,96.91199999999999,0)" xlink:href="#aI"/><use transform="matrix(0.018,0,0,0.018,102.86999999999999,0)" xlink:href="#aK"/><use transform="matrix(0.018,0,0,0.018,111.204,0)" xlink:href="#aq"/><use transform="matrix(0.018,0,0,0.018,119.844,0)" xlink:href="#ap"/><use transform="matrix(0.018,0,0,0.018,123.948,0)" xlink:href="#az"/><use transform="matrix(0.018,0,0,0.018,138.69,0)" xlink:href="#ay"/><use transform="matrix(0.018,0,0,0.018,147.32999999999998,0)" xlink:href="#ae"/></g><g id="V"><use transform="matrix(0.018,0,0,0.018,0,0)" xlink:href="#as"/><use transform="matrix(0.018,0,0,0.018,8.639999999999999,0)" xlink:href="#ao"/></g><g id="W"><use transform="matrix(0.018,0,0,0.018,0,0)" xlink:href="#aG"/><use transform="matrix(0.018,0,0,0.018,9.27,0)" xlink:href="#ag"/><use transform="matrix(0.018,0,0,0.018,14.579999999999998,0)" xlink:href="#ag"/><use transform="matrix(0.018,0,0,0.018,19.889999999999997,0)" xlink:href="#ak"/><use transform="matrix(0.018,0,0,0.018,29.321999999999992,0)" xlink:href="#aH"/><use transform="matrix(0.018,0,0,0.018,33.425999999999995,0)" xlink:href="#aI"/><use transform="matrix(0.018,0,0,0.018,39.384,0)" xlink:href="#aI"/><use transform="matrix(0.018,0,0,0.018,45.34199999999999,0)" xlink:href="#Y"/><use transform="matrix(0.018,0,0,0.018,52.99199999999999,0)" xlink:href="#aJ"/><use transform="matrix(0.018,0,0,0.018,61.487999999999985,0)" xlink:href="#ap"/><use transform="matrix(0.018,0,0,0.018,65.59199999999998,0)" xlink:href="#aj"/><use transform="matrix(0.018,0,0,0.018,73.20599999999999,0)" xlink:href="#ah"/><use transform="matrix(0.018,0,0,0.018,82.16999999999999,0)" xlink:href="#az"/><use transform="matrix(0.018,0,0,0.018,96.91199999999999,0)" xlink:href="#aI"/><use transform="matrix(0.018,0,0,0.018,102.86999999999999,0)" xlink:href="#aK"/><use transform="matrix(0.018,0,0,0.018,111.204,0)" xlink:href="#as"/><use transform="matrix(0.018,0,0,0.018,119.844,0)" xlink:href="#ap"/><use transform="matrix(0.018,0,0,0.018,123.948,0)" xlink:href="#az"/><use transform="matrix(0.018,0,0,0.018,138.69,0)" xlink:href="#ay"/><use transform="matrix(0.018,0,0,0.018,147.32999999999998,0)" xlink:href="#ae"/></g></defs></g></svg>