<svg xmlns="http://www.w3.org/2000/svg" xmlns:xlink="http://www.w3.org/1999/xlink" xmlns:lucid="lucid" width="835.13" height="400"><g transform="translate(63.12599999999999 20)" lucid:page-tab-id="0_0"><path d="M0 0h1360v1760H0z" fill="#fff"/><path d="M86 320h280v40H86z" stroke="#000" stroke-width="2" fill="#b2b2b2"/><use xlink:href="#a" transform="matrix(1,0,0,1,91,325) translate(84.501 19.086)"/><path d="M86 280h280v40H86z" stroke="#000" stroke-width="2" fill="#b391b5"/><use xlink:href="#b" transform="matrix(1,0,0,1,91,285) translate(52.34222222222223 19.035555555555554)"/><use xlink:href="#c" transform="matrix(1,0,0,1,91,285) translate(90.47555555555556 19.035555555555554)"/><use xlink:href="#d" transform="matrix(1,0,0,1,91,285) translate(167.48888888888888 19.035555555555554)"/><path d="M86 240h280v40H86z" stroke="#000" stroke-width="2" fill="#99d5ca"/><use xlink:href="#e" transform="matrix(1,0,0,1,91,245) translate(44.325 19.086)"/><use xlink:href="#f" transform="matrix(1,0,0,1,91,245) translate(98.577 19.086)"/><use xlink:href="#g" transform="matrix(1,0,0,1,91,245) translate(165.663 19.086)"/><path d="M86 120h80v120H86z" stroke="#000" stroke-width="2" fill="#b391b5"/><use xlink:href="#h" transform="matrix(1,0,0,1,91,125) translate(1.4888888888888872 59.03555555555556)"/><use xlink:href="#i" transform="matrix(1,0,0,1,91,125) translate(46.80444444444445 59.03555555555556)"/><path d="M186 120h80v120h-80z" stroke="#000" stroke-width="2" fill="#b391b5"/><use xlink:href="#h" transform="matrix(1,0,0,1,191,125) translate(1.4888888888888872 59.03555555555556)"/><use xlink:href="#i" transform="matrix(1,0,0,1,191,125) translate(46.80444444444445 59.03555555555556)"/><path d="M286 120h80v120h-80z" stroke="#000" stroke-width="2" fill="#b391b5"/><use xlink:href="#h" transform="matrix(1,0,0,1,291,125) translate(1.4888888888888872 59.03555555555556)"/><use xlink:href="#i" transform="matrix(1,0,0,1,291,125) translate(46.80444444444445 59.03555555555556)"/><path d="M86 79.44h80v41.12H86z" stroke="#000" stroke-width="2" fill="#ffc374"/><use xlink:href="#j" transform="matrix(1,0,0,1,91,84.44444444444444) translate(18.78333333333333 11.753333333333334)"/><use xlink:href="#k" transform="matrix(1,0,0,1,91,84.44444444444444) translate(21.909999999999997 27.308888888888887)"/><path d="M86 0h80v80H86z" stroke="#000" stroke-width="2" fill="#83bbe5"/><use xlink:href="#l" transform="matrix(1,0,0,1,91,5) translate(19.817 28.286)"/><use xlink:href="#m" transform="matrix(1,0,0,1,91,5) translate(28.781 49.885999999999996)"/><path d="M186 0h80v80h-80z" stroke="#000" stroke-width="2" fill="#83bbe5"/><use xlink:href="#l" transform="matrix(1,0,0,1,191,5) translate(19.817 28.286)"/><use xlink:href="#n" transform="matrix(1,0,0,1,191,5) translate(27.26 49.885999999999996)"/><path d="M286 0h80v80h-80z" stroke="#000" stroke-width="2" fill="#83bbe5"/><use xlink:href="#l" transform="matrix(1,0,0,1,291,5) translate(19.817 28.286)"/><use xlink:href="#o" transform="matrix(1,0,0,1,291,5) translate(29.708 49.885999999999996)"/><path d="M0 0h80v240H0z" fill="none"/><path d="M80 240c-8.28 0-15-6.72-15-15v-90c0-8.28-6.72-15-15-15 8.28 0 15-6.72 15-15V15c0-8.28 6.72-15 15-15" stroke="#000" stroke-width="2" fill="none"/><use xlink:href="#p" transform="matrix(6.123233995736766e-17,-1,1,6.123233995736766e-17,5,235) translate(56.37400000000001 20.086)"/><use xlink:href="#q" transform="matrix(6.123233995736766e-17,-1,1,6.123233995736766e-17,5,235) translate(110.626 20.086)"/><path d="M472 320h280v40H472z" stroke="#000" stroke-width="2" fill="#b2b2b2"/><use xlink:href="#a" transform="matrix(1,0,0,1,477,325) translate(84.501 19.086)"/><path d="M472 280h280v40H472z" stroke="#000" stroke-width="2" fill="#b391b5"/><use xlink:href="#b" transform="matrix(1,0,0,1,477,285) translate(52.34222222222223 19.035555555555554)"/><use xlink:href="#c" transform="matrix(1,0,0,1,477,285) translate(90.47555555555556 19.035555555555554)"/><use xlink:href="#d" transform="matrix(1,0,0,1,477,285) translate(167.48888888888888 19.035555555555554)"/><path d="M472 240h280v40H472z" stroke="#000" stroke-width="2" fill="#a3d977"/><use xlink:href="#r" transform="matrix(1,0,0,1,477,245) translate(80.97300000000001 19.086)"/><use xlink:href="#s" transform="matrix(1,0,0,1,477,245) translate(138.339 19.086)"/><path d="M472 200h180v40H472z" stroke="#000" stroke-width="2" fill="#ffc374"/><use xlink:href="#t" transform="matrix(1,0,0,1,477,205) translate(55.693333333333335 19.03111111111111)"/><path d="M672 200h80v40h-80z" stroke="#000" stroke-width="2" fill="#ffdf71"/><use xlink:href="#t" transform="matrix(1,0,0,1,677,205) translate(5.693333333333335 19.03111111111111)"/><path d="M472 120h40v80h-40z" stroke="#000" stroke-width="2" fill="#83bbe5"/><use xlink:href="#l" transform="matrix(1,0,0,1,477,125) translate(-0.18299999999999805 28.286)"/><use xlink:href="#m" transform="matrix(1,0,0,1,477,125) translate(8.781 49.885999999999996)"/><path d="M519 120h40v80h-40z" stroke="#000" stroke-width="2" fill="#83bbe5"/><g><use xlink:href="#l" transform="matrix(1,0,0,1,524,125) translate(-0.18299999999999805 28.286)"/><use xlink:href="#n" transform="matrix(1,0,0,1,524,125) translate(7.260000000000001 49.885999999999996)"/></g><path d="M672 120h80v80h-80z" stroke="#000" stroke-width="2" fill="#83bbe5"/><g><use xlink:href="#l" transform="matrix(1,0,0,1,677,125) translate(19.817 28.286)"/><use xlink:href="#o" transform="matrix(1,0,0,1,677,125) translate(29.708 49.885999999999996)"/></g><path d="M386 120h80v120h-80z" fill="none"/><path d="M466 240c-4.14 0-7.5-3.36-7.5-7.5v-45c0-4.14-3.36-7.5-7.5-7.5 4.14 0 7.5-3.36 7.5-7.5v-45c0-4.14 3.36-7.5 7.5-7.5" stroke="#000" stroke-width="2" fill="none"/><g><use xlink:href="#u" transform="matrix(6.123233995736766e-17,-1,1,6.123233995736766e-17,391.0000000000001,234.99999999999994) translate(18.433 43.086)"/></g><path d="M565 120h40v80h-40z" stroke="#000" stroke-width="2" fill="#83bbe5"/><g><use xlink:href="#l" transform="matrix(1,0,0,1,570,125) translate(-0.18299999999999805 28.286)"/><use xlink:href="#n" transform="matrix(1,0,0,1,570,125) translate(7.260000000000001 49.885999999999996)"/></g><path d="M186 79.44h80v41.12h-80z" stroke="#000" stroke-width="2" fill="#ffc374"/><g><use xlink:href="#j" transform="matrix(1,0,0,1,191,84.44444444444444) translate(18.78333333333333 11.753333333333334)"/><use xlink:href="#k" transform="matrix(1,0,0,1,191,84.44444444444444) translate(21.909999999999997 27.308888888888887)"/></g><path d="M286 79.44h80v41.12h-80z" stroke="#000" stroke-width="2" fill="#ffdf71"/><g><use xlink:href="#j" transform="matrix(1,0,0,1,291,84.44444444444444) translate(18.78333333333333 11.753333333333334)"/><use xlink:href="#k" transform="matrix(1,0,0,1,291,84.44444444444444) translate(21.909999999999997 27.308888888888887)"/></g><path d="M612 120h40v80h-40z" stroke="#000" stroke-width="2" fill="#83bbe5"/><g><use xlink:href="#l" transform="matrix(1,0,0,1,617,125) translate(-0.18299999999999805 28.286)"/><use xlink:href="#n" transform="matrix(1,0,0,1,617,125) translate(7.260000000000001 49.885999999999996)"/></g><defs><path d="M303 0H38v-28c82-6 90-12 90-97v-400c0-85-8-91-90-97v-28h265v28c-82 6-90 12-90 97v400c0 86 8 91 90 97V0" id="v"/><path d="M181-372c38-25 93-77 150-77 79 0 129 55 129 152v193c0 68 5 72 63 78V0H315v-26c59-6 66-14 66-83 0-116 35-281-91-281-40 0-79 25-109 51v235c0 68 6 72 65 78V0H29v-26c68-7 73-12 73-78v-207c0-64-6-67-60-77v-23c48-9 95-21 139-41v80" id="w"/><path d="M54-437h47c-1-39 2-77 11-104 7-22 25-69 77-117 53-49 140-78 189-20 19 23 4 45-14 59-9 7-18 7-27-3-28-34-109-58-134-7-17 12-26 115-23 192h118c6 9 1 33-10 39H180v288c0 74 7 77 86 85V0H30v-26c64-6 71-11 71-77v-295H31l-4-10" id="x"/><path d="M181-452c1 36-3 77 2 109 30-50 73-106 121-106 64 0 77 77 26 99-32 14-43-31-69-23-26 0-58 30-80 86v183c0 66 5 72 82 78V0H33v-26c62-6 69-12 69-78v-207c0-66-5-70-62-78v-22c49-8 93-20 141-41" id="y"/><path d="M225-449c82-7 127 65 127 149v186c2 67 33 69 71 49l10 26-85 51c-37-1-65-32-71-64-40 27-88 64-118 64C88 12 39-47 39-110c0-110 196-119 236-164 5-79-29-135-84-131-51 3-61 36-75 85-13 45-72 19-73-19 0-15 13-26 32-40 28-20 92-65 150-70zm50 209c-49 31-154 45-151 115 4 97 103 89 151 41v-156" id="z"/><path d="M320-325l-26 6c-19-59-54-99-103-99-38 0-65 30-65 69 0 44 40 68 85 87 75 31 126 67 126 136 0 91-85 138-165 138-51 0-97-19-115-34-7-14-16-82-16-118l26-5C85-79 130-21 190-21c37 0 71-28 71-70 0-44-29-68-79-91-60-28-125-61-125-138 0-70 60-129 152-129 41 0 68 9 89 17 8 23 19 82 22 107" id="A"/><path d="M298-36c-32 14-72 48-110 48-63 0-98-40-98-119v-291H21l-4-10 27-29h46v-73l65-66 14 2v137h113c9 10 6 32-6 39H169v257c2 119 61 103 120 79" id="B"/><path d="M287-426c46-2 119-11 157-18v334c-5 65 25 57 74 61v25c-44 5-109 25-147 36l-6-6v-71c-37 26-92 77-151 77-67 0-124-41-124-149v-196c2-70-20-58-61-70v-23c40-2 109-12 143-18-5 59-3 202-3 281 0 149 123 129 196 64v-233c6-74-31-60-78-71v-23" id="C"/><path d="M288-449c56 0 100 15 106 57-5 30-27 57-52 32-90-87-225-38-224 119 0 139 95 185 151 185 43 0 76-12 122-55l17 21C364-32 297 12 238 12 112 12 38-90 38-197c0-77 33-144 100-196 52-40 112-56 150-56" id="D"/><path d="M37-201c0-127 99-248 213-248 83 0 150 74 150 152 0 20-5 28-23 32-17 3-142 13-261 17C124-52 269-8 379-106l16 21C332-6 263 12 232 12 109 12 37-88 37-201zm277-111c1-52-33-101-89-100-45 0-89 42-104 123 56 0 111-1 169-3 18 0 24-6 24-20" id="E"/><g id="a"><use transform="matrix(0.018,0,0,0.018,0,0)" xlink:href="#v"/><use transform="matrix(0.018,0,0,0.018,5.85,0)" xlink:href="#w"/><use transform="matrix(0.018,0,0,0.018,15.695999999999998,0)" xlink:href="#x"/><use transform="matrix(0.018,0,0,0.018,21.204000000000004,0)" xlink:href="#y"/><use transform="matrix(0.018,0,0,0.018,27.882,0)" xlink:href="#z"/><use transform="matrix(0.018,0,0,0.018,35.784,0)" xlink:href="#A"/><use transform="matrix(0.018,0,0,0.018,42.3,0)" xlink:href="#B"/><use transform="matrix(0.018,0,0,0.018,47.88,0)" xlink:href="#y"/><use transform="matrix(0.018,0,0,0.018,54.73799999999999,0)" xlink:href="#C"/><use transform="matrix(0.018,0,0,0.018,64.29599999999999,0)" xlink:href="#D"/><use transform="matrix(0.018,0,0,0.018,72.036,0)" xlink:href="#B"/><use transform="matrix(0.018,0,0,0.018,77.34599999999999,0)" xlink:href="#C"/><use transform="matrix(0.018,0,0,0.018,86.904,0)" xlink:href="#y"/><use transform="matrix(0.018,0,0,0.018,93.348,0)" xlink:href="#E"/></g><path d="M729-650v28c-82 7-90 12-90 95v404c0 84 8 89 89 95V0H460v-28c85-6 94-11 94-95v-200H213v200c0 83 8 89 90 95V0H40v-28c80-6 88-11 88-95v-404c0-84-8-88-90-95v-28h259v28c-76 7-84 12-84 95v162h341v-162c0-83-8-88-86-95v-28h261" id="F"/><path d="M37-209c0-165 128-240 220-240 123 0 216 99 216 223C473-65 355 12 256 12 119 12 37-98 37-209zm343 5c0-117-47-213-135-212-61 0-115 62-115 175 0 126 55 220 137 220 62 0 113-46 113-183" id="G"/><g id="b"><use transform="matrix(0.017777777777777778,0,0,0.017777777777777778,0,0)" xlink:href="#F"/><use transform="matrix(0.017777777777777778,0,0,0.017777777777777778,13.173333333333334,0)" xlink:href="#G"/><use transform="matrix(0.017777777777777778,0,0,0.017777777777777778,22.24,0)" xlink:href="#A"/><use transform="matrix(0.017777777777777778,0,0,0.017777777777777778,28.675555555555558,0)" xlink:href="#B"/></g><path d="M44-318c0-180 126-347 337-347 169 0 322 132 322 332 0 216-151 348-334 348C188 15 44-126 44-318zm557 12c0-211-110-323-242-323-111 0-213 96-213 283 0 188 103 325 244 325 111 0 211-93 211-285" id="H"/><path d="M169-380c44-21 85-69 141-69 111 0 177 90 177 189 0 151-119 248-249 272-29-1-56-11-69-18v131c0 76 7 81 85 88v27H17v-27c64-6 73-12 73-78v-452c0-65-4-67-66-75v-24c42-7 98-24 145-43v79zm0 33v271c22 23 60 39 94 39 84 0 140-72 140-185 0-107-61-167-134-167-32 0-73 22-100 42" id="I"/><path d="M135-536c-26 0-50-24-50-51 0-30 24-52 51-52 28 0 50 22 50 52 0 27-22 51-51 51zM252 0H32v-26c63-6 70-12 70-80v-207c0-61-3-66-63-75v-24c51-8 98-21 142-39v345c0 68 7 74 71 80V0" id="J"/><path d="M29 135C29 70 98 46 136 9 86-9 54-37 51-88c40-15 72-41 88-61-45-19-88-66-88-134 0-152 162-201 275-141 49-2 100-8 136-14l6 8c-9 16-29 43-45 51l-57-3c19 22 30 53 30 89 0 126-112 177-226 155-43 26-44 80 33 80 36 0 72-1 105-1 62 0 144 20 144 118 0 101-117 198-250 198-111 0-173-65-173-122zm285-419c0-79-37-135-95-135-43 0-82 42-82 120s38 134 94 134c44 0 83-40 83-119zm70 379c0-70-63-84-143-84-47 0-69 7-87 22-26 22-46 49-46 78 0 54 58 95 132 95 95 0 144-49 144-111" id="K"/><g id="c"><use transform="matrix(0.017777777777777778,0,0,0.017777777777777778,0,0)" xlink:href="#H"/><use transform="matrix(0.017777777777777778,0,0,0.017777777777777778,13.36888888888889,0)" xlink:href="#I"/><use transform="matrix(0.017777777777777778,0,0,0.017777777777777778,22.84444444444444,0)" xlink:href="#E"/><use transform="matrix(0.017777777777777778,0,0,0.017777777777777778,30.4,0)" xlink:href="#y"/><use transform="matrix(0.017777777777777778,0,0,0.017777777777777778,36.995555555555555,0)" xlink:href="#z"/><use transform="matrix(0.017777777777777778,0,0,0.017777777777777778,44.8,0)" xlink:href="#B"/><use transform="matrix(0.017777777777777778,0,0,0.017777777777777778,50.31111111111111,0)" xlink:href="#J"/><use transform="matrix(0.017777777777777778,0,0,0.017777777777777778,55.07555555555555,0)" xlink:href="#w"/><use transform="matrix(0.017777777777777778,0,0,0.017777777777777778,64.65777777777777,0)" xlink:href="#K"/></g><path d="M409-504l-29 6c-18-64-44-133-131-133-77 0-111 56-111 110 0 73 48 107 127 148 78 40 173 87 173 199 0 105-89 189-222 189-62 1-114-19-147-36-8-21-21-107-27-155l29-7c16 61 61 162 164 162 75 0 120-47 120-120 0-74-55-109-130-149-64-34-165-84-165-197 0-96 77-178 206-178 46 0 88 11 126 23 4 36 9 75 17 138" id="L"/><path d="M478-437v25c-53 8-63 15-89 73-18 40-214 514-228 572-12 51-91 12-89-24 0-16 9-25 26-36 42-16 90-115 105-158 5-15 5-28-1-45-40-114-86-235-115-306-22-55-31-68-86-76v-25h203v25c-46 8-51 18-38 55l91 251c28-68 71-186 92-249 12-38 5-49-52-57v-25h181" id="M"/><path d="M446-367c53-34 86-82 158-82 78 0 127 55 127 153v193c0 67 8 71 65 77V0H583v-26c59-6 70-10 70-81 0-114 33-283-88-283-36 0-74 20-112 52 7 72 3 160 3 237 0 63 9 69 64 75V0H306v-26c62-6 71-11 71-77 0-113 33-287-87-287-40 0-79 27-109 52v235c0 65 8 71 57 77V0H27v-26c66-6 75-12 75-77v-207c0-64-3-69-61-78v-23c44-8 95-21 139-41v81c38-23 91-79 155-78 48 0 91 30 111 82" id="N"/><g id="d"><use transform="matrix(0.017777777777777778,0,0,0.017777777777777778,0,0)" xlink:href="#L"/><use transform="matrix(0.017777777777777778,0,0,0.017777777777777778,8.142222222222221,0)" xlink:href="#M"/><use transform="matrix(0.017777777777777778,0,0,0.017777777777777778,16.30222222222222,0)" xlink:href="#A"/><use transform="matrix(0.017777777777777778,0,0,0.017777777777777778,22.73777777777778,0)" xlink:href="#B"/><use transform="matrix(0.017777777777777778,0,0,0.017777777777777778,28.053333333333335,0)" xlink:href="#E"/><use transform="matrix(0.017777777777777778,0,0,0.017777777777777778,35.60888888888889,0)" xlink:href="#N"/></g><path d="M687-650v28c-68 8-81 17-119 107-27 65-133 319-208 526h-31c-67-183-149-399-207-544-29-75-45-83-104-88v-29h245v28c-71 8-75 15-59 59 27 70 98 269 168 436 50-125 126-320 158-419 19-58 13-66-68-76v-28h225" id="O"/><path d="M238 0H15v-26c63-6 72-12 72-78v-473c0-68-6-71-69-76v-24c52-6 114-23 148-35v608c0 66 8 72 72 78V0" id="P"/><g id="e"><use transform="matrix(0.018,0,0,0.018,0,0)" xlink:href="#O"/><use transform="matrix(0.018,0,0,0.018,11.106,0)" xlink:href="#J"/><use transform="matrix(0.018,0,0,0.018,15.929999999999998,0)" xlink:href="#y"/><use transform="matrix(0.018,0,0,0.018,22.787999999999997,0)" xlink:href="#B"/><use transform="matrix(0.018,0,0,0.018,28.098,0)" xlink:href="#C"/><use transform="matrix(0.018,0,0,0.018,37.709999999999994,0)" xlink:href="#z"/><use transform="matrix(0.018,0,0,0.018,45.611999999999995,0)" xlink:href="#P"/></g><path d="M861 0H598v-28c81-8 85-13 84-119l-3-408h-4L431-7h-20c-76-178-148-359-226-534-6 133-21 323-18 451 2 48 26 55 92 62V0H26v-28c58-7 78-18 85-60 12-67 27-288 33-391 9-130 4-134-87-143v-28h164l228 500 231-500h170v28c-88 8-95 10-92 113l10 362c3 106 6 111 93 119V0" id="Q"/><path d="M513 0H302v-26c58-6 66-12 66-77v-166c0-82-31-123-98-123-38 0-76 19-104 51v238c0 64 5 71 64 77V0H18l1-26c60-5 68-11 68-77v-477c0-63-2-68-68-74v-23c48-7 108-23 147-35v336c35-36 89-73 143-73 81-1 138 51 138 171v175c0 66 7 72 66 77V0" id="R"/><g id="f"><use transform="matrix(0.018,0,0,0.018,0,0)" xlink:href="#Q"/><use transform="matrix(0.018,0,0,0.018,15.732000000000001,0)" xlink:href="#z"/><use transform="matrix(0.018,0,0,0.018,23.634000000000004,0)" xlink:href="#D"/><use transform="matrix(0.018,0,0,0.018,31.14,0)" xlink:href="#R"/><use transform="matrix(0.018,0,0,0.018,40.752,0)" xlink:href="#J"/><use transform="matrix(0.018,0,0,0.018,45.57599999999999,0)" xlink:href="#w"/><use transform="matrix(0.018,0,0,0.018,55.349999999999994,0)" xlink:href="#E"/></g><g id="g"><use transform="matrix(0.018,0,0,0.018,0,0)" xlink:href="#Q"/><use transform="matrix(0.018,0,0,0.018,15.57,0)" xlink:href="#G"/><use transform="matrix(0.018,0,0,0.018,24.534,0)" xlink:href="#w"/><use transform="matrix(0.018,0,0,0.018,34.379999999999995,0)" xlink:href="#J"/><use transform="matrix(0.018,0,0,0.018,38.987999999999985,0)" xlink:href="#B"/><use transform="matrix(0.018,0,0,0.018,44.37,0)" xlink:href="#G"/><use transform="matrix(0.018,0,0,0.018,53.333999999999996,0)" xlink:href="#y"/></g><path d="M424-20c66 0 120-6 119-83v-85c0-72-7-78-105-86v-27h254v27c-60 9-64 14-64 73 0 60-4 129 7 179-62 15-144 37-224 37C191 15 44-122 44-320c0-232 186-345 382-345 83 0 160 22 192 29 3 35 8 90 16 156l-28 6c-24-122-100-155-195-155-153 0-265 112-265 297 0 144 85 312 278 312" id="S"/><g id="h"><use transform="matrix(0.017777777777777778,0,0,0.017777777777777778,0,0)" xlink:href="#S"/><use transform="matrix(0.017777777777777778,0,0,0.017777777777777778,12.426666666666666,0)" xlink:href="#C"/><use transform="matrix(0.017777777777777778,0,0,0.017777777777777778,21.866666666666667,0)" xlink:href="#E"/><use transform="matrix(0.017777777777777778,0,0,0.017777777777777778,29.422222222222228,0)" xlink:href="#A"/><use transform="matrix(0.017777777777777778,0,0,0.017777777777777778,35.857777777777784,0)" xlink:href="#B"/></g><g id="i"><use transform="matrix(0.017777777777777778,0,0,0.017777777777777778,0,0)" xlink:href="#H"/><use transform="matrix(0.017777777777777778,0,0,0.017777777777777778,13.28,0)" xlink:href="#L"/></g><path d="M301-650c133-2 206 41 206 148 0 95-79 134-135 149v3c99 15 177 59 177 159C549-56 410 0 257 0H36v-28c86-6 92-12 92-96v-403c0-83-4-89-84-95v-28h257zm-19 32c-54 0-70-4-70 60v196c125 9 203-28 203-128 0-68-38-128-133-128zm-70 289v204c0 72 19 91 83 91 82-1 155-43 155-147 0-118-97-156-238-148" id="T"/><path d="M298-665L81 44H25l217-709h56" id="U"/><g id="j"><use transform="matrix(0.015555555555555557,0,0,0.015555555555555557,0,0)" xlink:href="#T"/><use transform="matrix(0.015555555555555557,0,0,0.015555555555555557,9.022222222222224,0)" xlink:href="#J"/><use transform="matrix(0.015555555555555557,0,0,0.015555555555555557,13.191111111111113,0)" xlink:href="#w"/><use transform="matrix(0.015555555555555557,0,0,0.015555555555555557,21.57555555555556,0)" xlink:href="#A"/><use transform="matrix(0.015555555555555557,0,0,0.015555555555555557,27.28444444444445,0)" xlink:href="#U"/></g><path d="M332-34c116 5 128-42 163-129l30 6c-6 31-27 126-36 157H36v-28c84-6 92-13 92-98v-400c0-85-7-90-88-96v-28h261v28c-79 6-88 11-88 96v395c-5 104 31 93 119 97" id="V"/><path d="M152-404c38-14 77-45 122-45 107 0 197 92 197 210C471-35 257 74 73-24v-556c0-62-2-68-66-74v-23c47-6 108-21 145-35v308zm0 288c3 54 24 90 95 90 83 0 136-71 136-187 1-147-117-216-231-161v258" id="W"/><g id="k"><use transform="matrix(0.015555555555555557,0,0,0.015555555555555557,0,0)" xlink:href="#V"/><use transform="matrix(0.015555555555555557,0,0,0.015555555555555557,8.462222222222223,0)" xlink:href="#J"/><use transform="matrix(0.015555555555555557,0,0,0.015555555555555557,12.568888888888889,0)" xlink:href="#W"/><use transform="matrix(0.015555555555555557,0,0,0.015555555555555557,20.471111111111114,0)" xlink:href="#A"/></g><path d="M673 0H428v-28c63-8 72-16 59-55s-33-93-55-154H219c-16 45-30 87-44 129-21 63-13 73 62 80V0H20v-28c63-9 77-15 112-103l207-525 31-9c62 172 129 362 193 536 32 86 45 95 110 101V0zM418-280c-30-85-57-173-90-255-32 86-64 173-94 255h184" id="X"/><g id="l"><use transform="matrix(0.018,0,0,0.018,0,0)" xlink:href="#X"/><use transform="matrix(0.018,0,0,0.018,11.7,0)" xlink:href="#I"/><use transform="matrix(0.018,0,0,0.018,20.933999999999997,0)" xlink:href="#I"/></g><use transform="matrix(0.018,0,0,0.018,0,0)" xlink:href="#X" id="m"/><path d="M119-710l6 5c-2 23-18 157-26 219l-28 12c-10-94-25-195-29-209" id="Y"/><g id="n"><use transform="matrix(0.018,0,0,0.018,0,0)" xlink:href="#X"/><use transform="matrix(0.018,0,0,0.018,12.437999999999999,0)" xlink:href="#Y"/></g><use transform="matrix(0.018,0,0,0.018,0,0)" xlink:href="#T" id="o"/><g id="p"><use transform="matrix(0.018,0,0,0.018,0,0)" xlink:href="#O"/><use transform="matrix(0.018,0,0,0.018,11.106,0)" xlink:href="#J"/><use transform="matrix(0.018,0,0,0.018,15.929999999999998,0)" xlink:href="#y"/><use transform="matrix(0.018,0,0,0.018,22.787999999999997,0)" xlink:href="#B"/><use transform="matrix(0.018,0,0,0.018,28.098,0)" xlink:href="#C"/><use transform="matrix(0.018,0,0,0.018,37.709999999999994,0)" xlink:href="#z"/><use transform="matrix(0.018,0,0,0.018,45.611999999999995,0)" xlink:href="#P"/></g><g id="q"><use transform="matrix(0.018,0,0,0.018,0,0)" xlink:href="#Q"/><use transform="matrix(0.018,0,0,0.018,15.732000000000001,0)" xlink:href="#z"/><use transform="matrix(0.018,0,0,0.018,23.634000000000004,0)" xlink:href="#D"/><use transform="matrix(0.018,0,0,0.018,31.14,0)" xlink:href="#R"/><use transform="matrix(0.018,0,0,0.018,40.752,0)" xlink:href="#J"/><use transform="matrix(0.018,0,0,0.018,45.57599999999999,0)" xlink:href="#w"/><use transform="matrix(0.018,0,0,0.018,55.349999999999994,0)" xlink:href="#E"/></g><path d="M690-350C690-113 514 3 270 0H33v-27c86-6 94-12 94-97v-401c0-86-8-90-85-96v-29h281c227-1 367 86 367 300zM304-616c-77 5-90-11-91 69v416c0 76 33 95 106 95 187 0 273-140 273-300 0-166-107-291-288-280" id="Z"/><path d="M513 0L376 2c-46-51-108-132-164-198-19-22-23-26-47-19v111c0 66 9 72 73 78V0H14v-26c67-6 73-14 73-78v-473c0-66-5-71-66-76v-24c48-5 105-22 144-35v471c71-16 96-74 134-123 23-29 17-39-30-44v-26l204-9v25c-126 21-134 71-215 154 20 30 121 148 155 183 36 38 62 53 100 55V0" id="aa"/><g id="r"><use transform="matrix(0.018,0,0,0.018,0,0)" xlink:href="#Z"/><use transform="matrix(0.018,0,0,0.018,13.338,0)" xlink:href="#G"/><use transform="matrix(0.018,0,0,0.018,22.68,0)" xlink:href="#D"/><use transform="matrix(0.018,0,0,0.018,30.186000000000003,0)" xlink:href="#aa"/><use transform="matrix(0.018,0,0,0.018,38.952,0)" xlink:href="#E"/><use transform="matrix(0.018,0,0,0.018,46.602,0)" xlink:href="#y"/></g><path d="M341-34c137 3 134-40 175-128l30 4c-6 33-26 127-35 158H29v-28c91-7 99-15 99-96v-398c0-90-8-93-86-100v-28h446c0 25 5 93 8 144l-29 5c-29-87-16-115-145-114-38 9-109-25-109 32v227h94c90 0 95-8 108-75h29v192h-29c-13-72-20-78-107-78h-95v189c-1 97 31 92 128 94" id="ab"/><g id="s"><use transform="matrix(0.018,0,0,0.018,0,0)" xlink:href="#ab"/><use transform="matrix(0.018,0,0,0.018,10.223999999999998,0)" xlink:href="#w"/><use transform="matrix(0.018,0,0,0.018,19.926,0)" xlink:href="#K"/><use transform="matrix(0.018,0,0,0.018,28.439999999999998,0)" xlink:href="#J"/><use transform="matrix(0.018,0,0,0.018,33.263999999999996,0)" xlink:href="#w"/><use transform="matrix(0.018,0,0,0.018,43.038,0)" xlink:href="#E"/></g><g id="t"><use transform="matrix(0.015555555555555557,0,0,0.015555555555555557,0,0)" xlink:href="#T"/><use transform="matrix(0.015555555555555557,0,0,0.015555555555555557,9.022222222222224,0)" xlink:href="#J"/><use transform="matrix(0.015555555555555557,0,0,0.015555555555555557,13.191111111111113,0)" xlink:href="#w"/><use transform="matrix(0.015555555555555557,0,0,0.015555555555555557,21.57555555555556,0)" xlink:href="#A"/><use transform="matrix(0.015555555555555557,0,0,0.015555555555555557,27.28444444444445,0)" xlink:href="#U"/><use transform="matrix(0.015555555555555557,0,0,0.015555555555555557,32.43333333333334,0)" xlink:href="#V"/><use transform="matrix(0.015555555555555557,0,0,0.015555555555555557,40.89555555555556,0)" xlink:href="#J"/><use transform="matrix(0.015555555555555557,0,0,0.015555555555555557,45.00222222222222,0)" xlink:href="#W"/><use transform="matrix(0.015555555555555557,0,0,0.015555555555555557,52.904444444444444,0)" xlink:href="#A"/></g><path d="M614-176l29 11c-14 46-39 120-57 153-28 7-112 27-184 27C153 15 44-157 44-316c0-210 162-349 385-349 81 0 149 22 177 27 8 57 14 97 20 151l-30 7c-26-106-86-149-194-149-167 0-256 141-256 293 0 187 110 315 262 315 102 0 156-55 206-155" id="ac"/><g id="u"><use transform="matrix(0.018,0,0,0.018,0,0)" xlink:href="#ac"/><use transform="matrix(0.018,0,0,0.018,12.239999999999998,0)" xlink:href="#G"/><use transform="matrix(0.018,0,0,0.018,21.204000000000004,0)" xlink:href="#w"/><use transform="matrix(0.018,0,0,0.018,30.708000000000002,0)" xlink:href="#B"/><use transform="matrix(0.018,0,0,0.018,36.306000000000004,0)" xlink:href="#z"/><use transform="matrix(0.018,0,0,0.018,44.208000000000006,0)" xlink:href="#J"/><use transform="matrix(0.018,0,0,0.018,49.032000000000004,0)" xlink:href="#w"/><use transform="matrix(0.018,0,0,0.018,58.806,0)" xlink:href="#E"/><use transform="matrix(0.018,0,0,0.018,66.456,0)" xlink:href="#y"/></g></defs></g></svg>